<svg xmlns="http://www.w3.org/2000/svg" width="24" height="24" fill="none"><path fill="#D73035" fill-rule="evenodd" d="M11.999 8a.25.25 0 1 0 .002.5A.25.25 0 0 0 12 8Z" clip-rule="evenodd"/><path stroke="#D73035" stroke-linecap="round" stroke-linejoin="round" stroke-width="1.5" d="M11.999 8a.25.25 0 1 0 .002.5A.25.25 0 0 0 12 8"/><path stroke="#D73035" stroke-linecap="round" stroke-linejoin="round" stroke-width="1.5" d="M12 12v5m0 4v0a9 9 0 0 1-9-9v0a9 9 0 0 1 9-9v0a9 9 0 0 1 9 9v0a9 9 0 0 1-9 9Z"/></svg>