<svg xmlns="http://www.w3.org/2000/svg" width="241" height="129" fill="none"><path fill="#F5F5F5" d="M123.304 128.995c64.696 0 117.142-3.062 117.142-6.839 0-3.777-52.446-6.839-117.142-6.839-64.695 0-117.141 3.062-117.141 6.839 0 3.777 52.446 6.839 117.141 6.839Z"/><path fill="#9C9C9C" d="M.81 101.711h97.337V1.771H.809v99.94Z"/><path fill="#fff" d="M.81 101.711h97.337V1.771H.809v99.94Z" opacity=".4"/><path fill="#9C9C9C" d="M98.95 101.705H.006v-3.909a1.39 1.39 0 0 1 1.39-1.39h96.17a1.388 1.388 0 0 1 1.39 1.39v3.909h-.006Z"/><path fill="#263238" d="M.006 23.182H98.95v1.263a1.39 1.39 0 0 1-1.39 1.39H1.39A1.39 1.39 0 0 1 0 24.444v-1.263h.006ZM98.95 2.652H.006V1.39A1.39 1.39 0 0 1 1.396 0h96.17a1.39 1.39 0 0 1 1.39 1.39v1.262h-.006Z"/><path fill="#9C9C9C" d="M82.675 4.92 11.84 12.303a1.208 1.208 0 0 0-1.077 1.327l.543 5.21c.07.663.663 1.145 1.327 1.076l70.835-7.382a1.208 1.208 0 0 0 1.077-1.327l-.543-5.21a1.208 1.208 0 0 0-1.327-1.077Z"/><path fill="#fff" d="M65.153 45.778h-31.35v55.927h31.35V45.778Z"/><path fill="#9C9C9C" d="M63.335 31.423H35.622v7.032h27.713v-7.032Z" opacity=".4"/><path fill="#fff" d="M29.247 38.008H7.081v42.986h22.166V38.008Z"/><path fill="#9C9C9C" d="M27.272 39.984H9.057v39.04h18.215v-39.04ZM35.996 73.744H62.96V49.693H35.996v24.051Z" opacity=".3"/><path fill="#fff" d="M56.846 70.772h6.042a.865.865 0 0 1 .87.87.87.87 0 0 1-.87.87h-6.042a.87.87 0 0 1 0-1.74Z"/><path fill="#fff" d="m52.635 49.125-11.878 49.24H38.63l11.878-49.24h2.127ZM58.888 49.125 47.01 98.365h-4.169l11.878-49.24h4.169ZM18.536 39.984l-7.54 39.035H8.35l7.54-39.035h2.646ZM23.212 39.984l-7.54 39.035h-3.226l7.546-39.035h3.22Z" opacity=".4"/><path fill="#fff" d="M69.703 80.994H91.87V38.008H69.703v42.986Z"/><path fill="#9C9C9C" d="M71.684 39.978v39.04H89.9v-39.04H71.684Z" opacity=".3"/><path fill="#fff" d="m85.713 39.984-7.546 39.035H75.52l7.547-39.035h2.646ZM90.39 39.984l-7.54 39.035h-3.227l7.54-39.035h3.226Z" opacity=".4"/><path fill="#9C9C9C" d="m66.579 69.28-34.286-5.94v-5.896l34.286 5.933v5.903ZM198.867 21.43H101.53v80.281h97.337V21.43Z"/><path fill="#000" d="M198.867 21.43H101.53v80.281h97.337V21.43Z" opacity=".2"/><path fill="#263238" d="M102.116 88.516h96.171a1.39 1.39 0 0 1 1.39 1.39v11.805h-98.95V89.9a1.394 1.394 0 0 1 1.389-1.39v.006Z"/><path fill="#9C9C9C" d="M121.274 41.349h-12.186v2.924h12.186V41.35ZM195.653 41.349h-12.186v2.924h12.186V41.35ZM127.37 44.273h-12.186v2.924h12.186v-2.924ZM162.442 82.891h12.186v-2.924h-12.186v2.924Z"/><path fill="#9C9C9C" d="M156.352 85.81h12.186v-2.925h-12.186v2.924Z"/><path fill="#fff" d="M142.97 45.778h-31.35v55.927h31.35V45.778ZM191.859 45.778h-44.068v35.21h44.068v-35.21Z"/><path fill="#9C9C9C" d="M149.76 47.753V79.02h40.123V47.753H149.76ZM140.776 49.693h-26.964v48.11h26.964v-48.11Z" opacity=".3"/><path fill="#fff" d="M141.574 71.66h-28.571v4.169h28.571V71.66Z"/><path fill="#fff" d="m130.451 49.125-11.878 49.24h-2.126l11.878-49.24h2.126ZM136.704 49.125l-11.878 49.24h-4.168l11.878-49.24h4.168ZM170.586 47.76l-7.54 31.259H160.4l7.54-31.26h2.646ZM183.467 47.76l-7.54 31.259h-8.32l7.54-31.26h8.32Z" opacity=".4"/><path fill="#9C9C9C" d="M105.378 25.302h-12.85l15.116-13.08h9.491l-11.757 13.08Z"/><path fill="#fff" d="M118.229 25.302h-12.851l11.757-13.08h9.492l-8.398 13.08Z"/><path fill="#9C9C9C" d="M131.08 25.302h-12.851l8.398-13.08h9.491l-5.038 13.08Z"/><path fill="#fff" d="M143.93 25.302h-12.85l5.038-13.08h9.492l-1.68 13.08Z"/><path fill="#9C9C9C" d="M156.781 25.302H143.93l1.68-13.08h9.491l1.68 13.08Z"/><path fill="#fff" d="M169.637 25.302h-12.856l-1.68-13.08h9.492l5.044 13.08Z"/><path fill="#9C9C9C" d="M182.488 25.302h-12.85l-5.045-13.08h9.491l8.404 13.08ZM208.189 25.302h-12.85l-11.763-13.08h9.497l15.116 13.08Z"/><path fill="#fff" d="M195.339 25.302h-12.851l-8.404-13.08h9.491l11.764 13.08Z"/><path fill="#9C9C9C" d="M98.95 37.283a6.428 6.428 0 0 1-6.428-6.422v-5.559h12.857v5.559a6.431 6.431 0 0 1-6.429 6.422Z"/><path fill="#fff" d="M111.825 37.283a6.422 6.422 0 0 1-6.422-6.422v-5.559h12.826v5.559a6.424 6.424 0 0 1-6.404 6.422Z"/><path fill="#9C9C9C" d="M124.651 37.283a6.422 6.422 0 0 1-6.422-6.422v-5.559h12.851v5.559a6.425 6.425 0 0 1-6.429 6.422Z"/><path fill="#fff" d="M131.08 25.302h12.85v5.559a6.43 6.43 0 0 1-6.428 6.428 6.426 6.426 0 0 1-6.428-6.428v-5.559h.006Z"/><path fill="#9C9C9C" d="M150.358 37.283a6.423 6.423 0 0 1-6.428-6.422v-5.559h12.851v5.559a6.424 6.424 0 0 1-6.423 6.422Z"/><path fill="#fff" d="M156.781 25.302h12.85v5.559a6.412 6.412 0 0 1-1.893 4.55 6.439 6.439 0 0 1-4.559 1.872 6.43 6.43 0 0 1-6.429-6.428v-5.559l.031.006Z"/><path fill="#9C9C9C" d="M176.059 37.283a6.423 6.423 0 0 1-6.422-6.422v-5.559h12.875v5.559a6.415 6.415 0 0 1-1.892 4.552 6.413 6.413 0 0 1-4.561 1.87ZM201.761 37.283a6.422 6.422 0 0 1-6.422-6.422v-5.559h12.85v5.559a6.424 6.424 0 0 1-3.968 5.935 6.424 6.424 0 0 1-2.46.487Z"/><path fill="#fff" d="M182.512 25.302h12.851v5.559a6.426 6.426 0 1 1-12.851 0v-5.559Z"/><path fill="#9C9C9C" d="M139.937 73.382a1.824 1.824 0 1 0 0-3.648 1.824 1.824 0 0 0 0 3.648ZM191.871 73.57l-44.449-20.361a.26.26 0 0 1-.145-.224v-2.163a.248.248 0 0 1 .351-.224l44.448 20.361a.24.24 0 0 1 .145.224v2.163a.244.244 0 0 1-.23.245.247.247 0 0 1-.12-.022Z"/><path fill="#9C9C9C" d="m191.889 53.74-44.455 17.255a.246.246 0 0 0-.113.091.255.255 0 0 0-.044.139V73.4a.244.244 0 0 0 .109.204.247.247 0 0 0 .23.026l44.448-17.255a.24.24 0 0 0 .157-.23V53.97c0-.04-.01-.078-.029-.113a.245.245 0 0 0-.303-.116Z"/><path fill="#263238" d="M228.676 57.523h-2.718v34.654h2.718V57.523Z"/><path fill="#9C9C9C" d="M237.334 82.74h-20.04a.854.854 0 0 0-.872.574c-.04.118-.054.244-.04.369l3.111 17.321a.904.904 0 0 0 .918.689h13.812a.895.895 0 0 0 .912-.689l3.117-17.321a.848.848 0 0 0-.549-.892.85.85 0 0 0-.369-.05Z"/><path fill="#fff" d="M237.334 82.74h-20.04a.854.854 0 0 0-.872.574c-.04.118-.054.244-.04.369l3.111 17.321a.904.904 0 0 0 .918.689h13.812a.895.895 0 0 0 .912-.689l3.117-17.321a.848.848 0 0 0-.549-.892.85.85 0 0 0-.369-.05Z" opacity=".5"/><path fill="#9C9C9C" d="M240.446 53.704a1.08 1.08 0 0 0-.49-.906 1.02 1.02 0 0 0-.302-.205.375.375 0 1 1-.35-.665 1.089 1.089 0 0 0-.302-.604 1.108 1.108 0 0 0 0-1.045 1.07 1.07 0 0 0-.459-.454 9.039 9.039 0 0 0-1.33-2.078 1.078 1.078 0 0 0 .06-1.28 1.099 1.099 0 0 0-.501-.411 1.075 1.075 0 0 0 .103-.822 1.083 1.083 0 0 0-.51-.665 1.094 1.094 0 0 0-.831-.108c-.129.034-.25.094-.357.175l-.066-.043a1.13 1.13 0 0 0-.604-.084 1.122 1.122 0 0 0-.441-.296h-.049a1.096 1.096 0 0 0-.883-1.911c-.253.04-.484.17-.651.364l-.103-.03a1.054 1.054 0 0 0-.55.042 1.1 1.1 0 0 0-.876-.386 1.094 1.094 0 0 0-2.036-.38.825.825 0 0 0-.09.229 1.091 1.091 0 0 0-1.033.006 1.095 1.095 0 0 0-1.952.151.849.849 0 0 0-.042.139 1.088 1.088 0 0 0-1.058-.29.597.597 0 0 1-.5.393.602.602 0 0 1-.575-.273c-.773.196-1.544.397-2.314.605a1.064 1.064 0 0 0-.248.664 1.025 1.025 0 0 0-.271 0 1.094 1.094 0 0 0-.87.919 1.066 1.066 0 0 0-.454.042c-.258.09-.473.273-.604.513a.597.597 0 0 0-.181-.084 1.087 1.087 0 0 0-1.43 1.261c.044.198.142.38.282.527v.03c-.066.17-.089.352-.066.532l-.079.054a1.135 1.135 0 0 0-.29.417h-.085a1.101 1.101 0 0 0-1.208 1.22 1.095 1.095 0 0 0-.356 1.48c.127.221.332.387.574.466a1.075 1.075 0 0 0-.055.477l-.115.073c-.21.803-.411 1.609-.604 2.416.053.14.131.27.23.381a1.166 1.166 0 0 0-.278.435 1.094 1.094 0 0 0 .369 1.208.68.68 0 0 0-.176.115 1.078 1.078 0 0 0-.184 1.259 1.075 1.075 0 0 0 1.145.554c.018.04.038.077.06.114a1.098 1.098 0 0 0-.181.78.865.865 0 0 0 .073.254 1.08 1.08 0 0 0-.176 1.21 1.105 1.105 0 0 0 .628.557c.136.047.28.066.424.057h.127a1.083 1.083 0 0 0 1.008.72 1.914 1.914 0 0 0-.03.198 1.106 1.106 0 0 0 1.058 1.136h.126a1.11 1.11 0 0 0-.044 1.134 1.089 1.089 0 0 0 .655.522 1.11 1.11 0 0 0 1.033-.242 2.098 2.098 0 0 1 1.637.834 1.074 1.074 0 0 0 1.075-.181c.035.181.114.351.23.495a1.099 1.099 0 0 0 1.165.348c.137-.042.265-.111.376-.203a1.103 1.103 0 0 0 .936.073c.031.098.075.192.133.277a1.1 1.1 0 0 0 1.529.272c.127-.092.234-.209.314-.344a1.079 1.079 0 0 0 1.522-.526 4.063 4.063 0 0 1 2.556-.604c.147-.17.238-.38.26-.604a1.096 1.096 0 0 0 .9-.604c.053-.116.083-.241.09-.369.243-.057.456-.199.605-.398a1.098 1.098 0 0 0 1.854.09 1.1 1.1 0 0 0 .2-.695 1.12 1.12 0 0 0-.339-.676 1.051 1.051 0 0 0 .641-.798l.072.042a1.091 1.091 0 0 0 1.481-.44 2.2 2.2 0 0 1-.08-1.029c.054-.344.189-.67.394-.953a1.105 1.105 0 0 0-.363-.78v-.114c.083-.066.156-.144.218-.23a1.085 1.085 0 0 0 .133-.955.916.916 0 0 0 .217-.042c.431-.833.945-1.62 1.535-2.35l-.006-.103ZM178.011 118.386a28.168 28.168 0 0 1-11.558-2.477c-1.208-.55-2.652-1.365-3.129-2.803a5.316 5.316 0 0 1 .151-3.021 20.662 20.662 0 0 1 2.725-6.289c.159-.517.416-.999.755-1.42a11.064 11.064 0 0 1-.23-3.39c.202-1.913.85-3.753 1.891-5.37.888-1.42 2.417-3.263 4.743-3.958a9.574 9.574 0 0 1 2.199-.35 8.784 8.784 0 0 1 3.402-1.674 11.709 11.709 0 0 1 4.229-.097c.519.067 1.033.152 1.552.26a16.597 16.597 0 0 1 16.114 5.752 8.663 8.663 0 0 1 1.474 2.556 7.55 7.55 0 0 1-.055 4.676 9.444 9.444 0 0 1 1.553 4.833 9.554 9.554 0 0 1-2.815 6.646 16.235 16.235 0 0 1-6.163 3.824 18.968 18.968 0 0 1-9.171 1.263h-.145a27.283 27.283 0 0 1-3.106.701c-1.46.229-2.937.343-4.416.338Zm-11.95-13.473a21.649 21.649 0 0 0-2.133 5.311 4.91 4.91 0 0 0-.145 2.725c.417 1.268 1.752 2.012 2.876 2.519a27.598 27.598 0 0 0 15.708 2.084 26.824 26.824 0 0 0 2.103-.429 16.339 16.339 0 0 1-7.945-4.38 26.093 26.093 0 0 1-7.19-3.304c-2.151-1.42-3.22-2.888-3.274-4.483v-.043Zm20.626 12.084a19.123 19.123 0 0 0 8.017-1.336 15.695 15.695 0 0 0 5.987-3.709 9.06 9.06 0 0 0 2.689-6.302 8.843 8.843 0 0 0-1.281-4.229 15.38 15.38 0 0 1-.689 1.607 9.382 9.382 0 0 1-.833 3.148 15.443 15.443 0 0 1-3.625 4.773 28.221 28.221 0 0 1-10.265 6.036v.012Zm-9.208-3.97a15.615 15.615 0 0 0 8.054 3.831 27.73 27.73 0 0 0 11.086-6.284 15.05 15.05 0 0 0 3.541-4.622 9.4 9.4 0 0 0 .604-1.752c-2.544 4.314-6.169 7.377-10.126 8.628-.988.3-1.998.523-3.021.664a25.215 25.215 0 0 1-7.159.073 26.19 26.19 0 0 1-2.979-.55v.012Zm3.021.085c2.716.338 5.469.218 8.144-.357a15.014 15.014 0 0 0 3.094-.99 10.946 10.946 0 0 0 6.084-8.217 13.992 13.992 0 0 0-.562-5.824c-.169-.562-.357-1.1-.568-1.613a54.69 54.69 0 0 0-1.498-.985 41.127 41.127 0 0 0-5.009-2.852 27.651 27.651 0 0 0-8.652-2.308c-.758.388-1.468.865-2.114 1.42-.358.32-.697.661-1.015 1.021a16.054 16.054 0 0 0-1.45 3.154c-.036.096-.067.2-.103.296a11.212 11.212 0 0 1 3.994-2.03c2.9-.737 6.355.12 9.249 2.284a7.796 7.796 0 0 1 2.018 2.084 9.756 9.756 0 0 1 1.094 4.132c.29 2.816.332 5.704-1.347 7.74-.931 1.124-2.327 1.921-4.399 2.507a13.122 13.122 0 0 1-6.754.32 8.952 8.952 0 0 1-1.257.049c.344.048.701.102 1.057.157l-.006.012Zm1.511-.459c1.79.171 3.597-.011 5.316-.538 1.976-.556 3.299-1.305 4.163-2.356 1.571-1.897 1.522-4.677 1.245-7.389a9.399 9.399 0 0 0-1.028-3.933 7.166 7.166 0 0 0-1.903-1.958c-2.779-2.078-6.084-2.9-8.851-2.205a11.32 11.32 0 0 0-4.362 2.374c-.169.55-.326 1.112-.459 1.674 4.574-.194 8.881 2.278 12.361 4.259.864.496 1.668 1.009 1.97 1.891.156.484.167 1.003.03 1.493a3.803 3.803 0 0 1-2.719 2.646c-.507 1.269-1.661 2.344-3.437 3.19a12.37 12.37 0 0 1-2.32.84l-.006.012Zm-6.646-1.903a5.954 5.954 0 0 0 3.353 1.649c.236.03.471.054.707.066a7.357 7.357 0 0 1-4.115-4.084 10.113 10.113 0 0 1-.471-3.721c.037-1.939.264-3.87.677-5.764h-.417c-.4 1.48-.711 2.983-.93 4.501a15.43 15.43 0 0 0-.188 4.422c.069.518.207 1.024.411 1.505.302.487.629.959.979 1.413l-.006.013Zm.604-11.836a29.208 29.208 0 0 0-.689 5.758 9.76 9.76 0 0 0 .441 3.552 7.134 7.134 0 0 0 4.894 4.163h.091a10.827 10.827 0 0 0 3.407-1.033 6.278 6.278 0 0 0 3.081-2.671c-.248.03-.5.03-.749 0a3.787 3.787 0 0 1-3.166-3.697h.472a3.306 3.306 0 0 0 2.755 3.226c.296.045.597.045.894 0v-.078c.634-2.097-.798-4.29-2.35-5.637a15.293 15.293 0 0 0-7.849-3.444 9.155 9.155 0 0 0-1.202-.151l-.03.012Zm-6.845 7.389a14.07 14.07 0 0 0 4.604 4.477c.593.359 1.211.676 1.848.948l-.127-.145-.435-.543a5.267 5.267 0 0 1-1.027-1.499 19.126 19.126 0 0 1-2.573-7.195 27.718 27.718 0 0 0-2.29 3.957Zm-2.477-2.314a3.115 3.115 0 0 0-.115.961c.048 1.431 1.051 2.779 3.063 4.108a25.246 25.246 0 0 0 3.855 2.078 14.596 14.596 0 0 1-4.526-4.338c-.139.321-.271.641-.404.961l-.435-.175c.169-.423.35-.84.543-1.257a13.148 13.148 0 0 1-1.395-3.099 5.409 5.409 0 0 0-.586.767v-.006Zm30.734-7.42c.12.327.229.66.332 1.004.622 1.95.818 4.01.574 6.041a11.32 11.32 0 0 1-3.299 6.453 20.768 20.768 0 0 0 5.401-6.181c.206-.344.393-.689.562-1.021a6.855 6.855 0 0 0-.302-2.549 7.348 7.348 0 0 0-.894-1.813 21.994 21.994 0 0 0-2.374-1.927v-.006Zm-16.742 2.816a14.779 14.779 0 0 1 4.773 2.743c1.619 1.402 3.105 3.673 2.544 5.927a3.297 3.297 0 0 0 1.319-.854c.364-.388.628-.857.771-1.369a2.162 2.162 0 0 0 0-1.209c-.248-.725-.979-1.208-1.758-1.637-2.266-1.293-4.87-2.773-7.649-3.595v-.006Zm-8.839 2.381c.245 2.04.818 4.027 1.698 5.884a15.892 15.892 0 0 1 .217-4.332 37.64 37.64 0 0 1 .889-4.386l-.55.12a29.152 29.152 0 0 0-2.254 2.72v-.006Zm-4.229 1.027a12.392 12.392 0 0 0 1.269 3.021 28.837 28.837 0 0 1 2.483-4.187 16.099 16.099 0 0 1-.091-1.082v-.604c-.259.109-.519.23-.779.356a11.95 11.95 0 0 0-2.797 2.387l-.085.109Zm7.371-12.948a7.97 7.97 0 0 0-1.456.278 8.409 8.409 0 0 0-4.477 3.758 11.837 11.837 0 0 0-1.813 5.142c-.084.966-.035 1.94.146 2.894a9.884 9.884 0 0 1 2.718-1.94l.127-.06c.32-.194.653-.375.991-.538a14.435 14.435 0 0 1 1.565-6.712 10.68 10.68 0 0 1 2.193-2.816l.006-.006Zm25.979 9.897c.054.139.109.284.157.429.174.547.281 1.113.32 1.685.139-.332.26-.664.363-.985a12.1 12.1 0 0 0-.822-1.123l-.018-.006Zm-29.272.042v.743c0 .248 0 .369.042.55.466-.604.961-1.239 1.481-1.813-.466.14-.985.32-1.505.526l-.018-.006Zm28.438-1.607c.32.302.604.604.919.948.33.368.639.756.924 1.16a6.888 6.888 0 0 0-.042-4.011 8.326 8.326 0 0 0-1.402-2.417 16.13 16.13 0 0 0-14.585-5.77c.236.06.478.127.707.2.23.072.308 0 .459 0a11.25 11.25 0 0 1 7.601 3.625c.575.635 1.081 1.33 1.51 2.072.532.477 1.021.949 1.468 1.384a18.251 18.251 0 0 1 2.459 2.815l-.018-.006Zm-24.39-8.392a10.15 10.15 0 0 0-2.543 3.1 13.888 13.888 0 0 0-1.505 6.283 9.82 9.82 0 0 1 2.211-.64c.399-.418.81-.828 1.209-1.209a15.613 15.613 0 0 1 2.918-5.208 8.84 8.84 0 0 1 2.006-2.284 38.22 38.22 0 0 0-3.855-.048l-.441.006Zm-.912 8.458-.187.182h.132l.055-.182Zm.713-.688c-.091.265-.175.531-.26.803l.393-.042c.09-.38.187-.767.296-1.148l-.23.205-.199.182Zm1.208-2.774c-.324.586-.61 1.191-.858 1.813l.326-.278c.097-.32.206-.646.321-.967.084-.145.151-.344.229-.525l-.018-.043Zm20.354.991c.375.254.744.52 1.106.792-.278-.29-.562-.604-.846-.852l-.495-.477c.102.193.187.374.253.555l-.018-.018Zm-14.729-6.21a27.732 27.732 0 0 1 8.035 2.277 42.76 42.76 0 0 1 5.063 2.876l.894.604a15.518 15.518 0 0 0-.519-.997 29.575 29.575 0 0 0-4.338-3.335 21.192 21.192 0 0 0-4.936-2.211 10.667 10.667 0 0 0-4.181.804l-.018-.019Zm6.223-.605c1.094.446 2.151.979 3.16 1.595a27.122 27.122 0 0 1 3.069 2.218 7.765 7.765 0 0 0-.466-.538 10.812 10.812 0 0 0-5.763-3.257v-.018Zm-7.129.496a11.178 11.178 0 0 1 3.625-1.094l-.345-.078c-.594.126-1.179.291-1.752.495-.52.194-1.025.426-1.51.695l-.018-.018Zm-3.801-.194c1.021 0 2.024.043 3.021.121a10.645 10.645 0 0 1 2.211-1.045c.266-.097.532-.181.804-.26l-.507-.072a11.314 11.314 0 0 0-4.091.096c-.955.24-1.86.649-2.67 1.209l1.232-.049Z"/><path fill="#fff" d="M178.011 118.386a28.168 28.168 0 0 1-11.558-2.477c-1.208-.55-2.652-1.365-3.129-2.803a5.316 5.316 0 0 1 .151-3.021 20.662 20.662 0 0 1 2.725-6.289c.159-.517.416-.999.755-1.42a11.064 11.064 0 0 1-.23-3.39c.202-1.913.85-3.753 1.891-5.37.888-1.42 2.417-3.263 4.743-3.958a9.574 9.574 0 0 1 2.199-.35 8.784 8.784 0 0 1 3.402-1.674 11.709 11.709 0 0 1 4.229-.097c.519.067 1.033.152 1.552.26a16.597 16.597 0 0 1 16.114 5.752 8.663 8.663 0 0 1 1.474 2.556 7.55 7.55 0 0 1-.055 4.676 9.444 9.444 0 0 1 1.553 4.833 9.554 9.554 0 0 1-2.815 6.646 16.235 16.235 0 0 1-6.163 3.824 18.968 18.968 0 0 1-9.171 1.263h-.145a27.283 27.283 0 0 1-3.106.701c-1.46.229-2.937.343-4.416.338Zm-11.95-13.473a21.649 21.649 0 0 0-2.133 5.311 4.91 4.91 0 0 0-.145 2.725c.417 1.268 1.752 2.012 2.876 2.519a27.598 27.598 0 0 0 15.708 2.084 26.824 26.824 0 0 0 2.103-.429 16.339 16.339 0 0 1-7.945-4.38 26.093 26.093 0 0 1-7.19-3.304c-2.151-1.42-3.22-2.888-3.274-4.483v-.043Zm20.626 12.084a19.123 19.123 0 0 0 8.017-1.336 15.695 15.695 0 0 0 5.987-3.709 9.06 9.06 0 0 0 2.689-6.302 8.843 8.843 0 0 0-1.281-4.229 15.38 15.38 0 0 1-.689 1.607 9.382 9.382 0 0 1-.833 3.148 15.443 15.443 0 0 1-3.625 4.773 28.221 28.221 0 0 1-10.265 6.036v.012Zm-9.208-3.97a15.615 15.615 0 0 0 8.054 3.831 27.73 27.73 0 0 0 11.086-6.284 15.05 15.05 0 0 0 3.541-4.622 9.4 9.4 0 0 0 .604-1.752c-2.544 4.314-6.169 7.377-10.126 8.628-.988.3-1.998.523-3.021.664a25.215 25.215 0 0 1-7.159.073 26.19 26.19 0 0 1-2.979-.55v.012Zm3.021.085c2.716.338 5.469.218 8.144-.357a15.014 15.014 0 0 0 3.094-.99 10.946 10.946 0 0 0 6.084-8.217 13.992 13.992 0 0 0-.562-5.824c-.169-.562-.357-1.1-.568-1.613a54.69 54.69 0 0 0-1.498-.985 41.127 41.127 0 0 0-5.009-2.852 27.651 27.651 0 0 0-8.652-2.308c-.758.388-1.468.865-2.114 1.42-.358.32-.697.661-1.015 1.021a16.054 16.054 0 0 0-1.45 3.154c-.036.096-.067.2-.103.296a11.212 11.212 0 0 1 3.994-2.03c2.9-.737 6.355.12 9.249 2.284a7.796 7.796 0 0 1 2.018 2.084 9.756 9.756 0 0 1 1.094 4.132c.29 2.816.332 5.704-1.347 7.74-.931 1.124-2.327 1.921-4.399 2.507a13.122 13.122 0 0 1-6.754.32 8.952 8.952 0 0 1-1.257.049c.344.048.701.102 1.057.157l-.006.012Zm1.511-.459c1.79.171 3.597-.011 5.316-.538 1.976-.556 3.299-1.305 4.163-2.356 1.571-1.897 1.522-4.677 1.245-7.389a9.399 9.399 0 0 0-1.028-3.933 7.166 7.166 0 0 0-1.903-1.958c-2.779-2.078-6.084-2.9-8.851-2.205a11.32 11.32 0 0 0-4.362 2.374c-.169.55-.326 1.112-.459 1.674 4.574-.194 8.881 2.278 12.361 4.259.864.496 1.668 1.009 1.97 1.891.156.484.167 1.003.03 1.493a3.803 3.803 0 0 1-2.719 2.646c-.507 1.269-1.661 2.344-3.437 3.19a12.37 12.37 0 0 1-2.32.84l-.006.012Zm-6.646-1.903a5.954 5.954 0 0 0 3.353 1.649c.236.03.471.054.707.066a7.357 7.357 0 0 1-4.115-4.084 10.113 10.113 0 0 1-.471-3.721c.037-1.939.264-3.87.677-5.764h-.417c-.4 1.48-.711 2.983-.93 4.501a15.43 15.43 0 0 0-.188 4.422c.069.518.207 1.024.411 1.505.302.487.629.959.979 1.413l-.006.013Zm.604-11.836a29.208 29.208 0 0 0-.689 5.758 9.76 9.76 0 0 0 .441 3.552 7.134 7.134 0 0 0 4.894 4.163h.091a10.827 10.827 0 0 0 3.407-1.033 6.278 6.278 0 0 0 3.081-2.671c-.248.03-.5.03-.749 0a3.787 3.787 0 0 1-3.166-3.697h.472a3.306 3.306 0 0 0 2.755 3.226c.296.045.597.045.894 0v-.078c.634-2.097-.798-4.29-2.35-5.637a15.293 15.293 0 0 0-7.849-3.444 9.155 9.155 0 0 0-1.202-.151l-.03.012Zm-6.845 7.389a14.07 14.07 0 0 0 4.604 4.477c.593.359 1.211.676 1.848.948l-.127-.145-.435-.543a5.267 5.267 0 0 1-1.027-1.499 19.126 19.126 0 0 1-2.573-7.195 27.718 27.718 0 0 0-2.29 3.957Zm-2.477-2.314a3.115 3.115 0 0 0-.115.961c.048 1.431 1.051 2.779 3.063 4.108a25.246 25.246 0 0 0 3.855 2.078 14.596 14.596 0 0 1-4.526-4.338c-.139.321-.271.641-.404.961l-.435-.175c.169-.423.35-.84.543-1.257a13.148 13.148 0 0 1-1.395-3.099 5.409 5.409 0 0 0-.586.767v-.006Zm30.734-7.42c.12.327.229.66.332 1.004.622 1.95.818 4.01.574 6.041a11.32 11.32 0 0 1-3.299 6.453 20.768 20.768 0 0 0 5.401-6.181c.206-.344.393-.689.562-1.021a6.855 6.855 0 0 0-.302-2.549 7.348 7.348 0 0 0-.894-1.813 21.994 21.994 0 0 0-2.374-1.927v-.006Zm-16.742 2.816a14.779 14.779 0 0 1 4.773 2.743c1.619 1.402 3.105 3.673 2.544 5.927a3.297 3.297 0 0 0 1.319-.854c.364-.388.628-.857.771-1.369a2.162 2.162 0 0 0 0-1.209c-.248-.725-.979-1.208-1.758-1.637-2.266-1.293-4.87-2.773-7.649-3.595v-.006Zm-8.839 2.381c.245 2.04.818 4.027 1.698 5.884a15.892 15.892 0 0 1 .217-4.332 37.64 37.64 0 0 1 .889-4.386l-.55.12a29.152 29.152 0 0 0-2.254 2.72v-.006Zm-4.229 1.027a12.392 12.392 0 0 0 1.269 3.021 28.837 28.837 0 0 1 2.483-4.187 16.099 16.099 0 0 1-.091-1.082v-.604c-.259.109-.519.23-.779.356a11.95 11.95 0 0 0-2.797 2.387l-.085.109Zm7.371-12.948a7.97 7.97 0 0 0-1.456.278 8.409 8.409 0 0 0-4.477 3.758 11.837 11.837 0 0 0-1.813 5.142c-.084.966-.035 1.94.146 2.894a9.884 9.884 0 0 1 2.718-1.94l.127-.06c.32-.194.653-.375.991-.538a14.435 14.435 0 0 1 1.565-6.712 10.68 10.68 0 0 1 2.193-2.816l.006-.006Zm25.979 9.897c.054.139.109.284.157.429.174.547.281 1.113.32 1.685.139-.332.26-.664.363-.985a12.1 12.1 0 0 0-.822-1.123l-.018-.006Zm-29.272.042v.743c0 .248 0 .369.042.55.466-.604.961-1.239 1.481-1.813-.466.14-.985.32-1.505.526l-.018-.006Zm28.438-1.607c.32.302.604.604.919.948.33.368.639.756.924 1.16a6.888 6.888 0 0 0-.042-4.011 8.326 8.326 0 0 0-1.402-2.417 16.13 16.13 0 0 0-14.585-5.77c.236.06.478.127.707.2.23.072.308 0 .459 0a11.25 11.25 0 0 1 7.601 3.625c.575.635 1.081 1.33 1.51 2.072.532.477 1.021.949 1.468 1.384a18.251 18.251 0 0 1 2.459 2.815l-.018-.006Zm-24.39-8.392a10.15 10.15 0 0 0-2.543 3.1 13.888 13.888 0 0 0-1.505 6.283 9.82 9.82 0 0 1 2.211-.64c.399-.418.81-.828 1.209-1.209a15.613 15.613 0 0 1 2.918-5.208 8.84 8.84 0 0 1 2.006-2.284 38.22 38.22 0 0 0-3.855-.048l-.441.006Zm-.912 8.458-.187.182h.132l.055-.182Zm.713-.688c-.091.265-.175.531-.26.803l.393-.042c.09-.38.187-.767.296-1.148l-.23.205-.199.182Zm1.208-2.774c-.324.586-.61 1.191-.858 1.813l.326-.278c.097-.32.206-.646.321-.967.084-.145.151-.344.229-.525l-.018-.043Zm20.354.991c.375.254.744.52 1.106.792-.278-.29-.562-.604-.846-.852l-.495-.477c.102.193.187.374.253.555l-.018-.018Zm-14.729-6.21a27.732 27.732 0 0 1 8.035 2.277 42.76 42.76 0 0 1 5.063 2.876l.894.604a15.518 15.518 0 0 0-.519-.997 29.575 29.575 0 0 0-4.338-3.335 21.192 21.192 0 0 0-4.936-2.211 10.667 10.667 0 0 0-4.181.804l-.018-.019Zm6.223-.605c1.094.446 2.151.979 3.16 1.595a27.122 27.122 0 0 1 3.069 2.218 7.765 7.765 0 0 0-.466-.538 10.812 10.812 0 0 0-5.763-3.257v-.018Zm-7.129.496a11.178 11.178 0 0 1 3.625-1.094l-.345-.078c-.594.126-1.179.291-1.752.495-.52.194-1.025.426-1.51.695l-.018-.018Zm-3.801-.194c1.021 0 2.024.043 3.021.121a10.645 10.645 0 0 1 2.211-1.045c.266-.097.532-.181.804-.26l-.507-.072a11.314 11.314 0 0 0-4.091.096c-.955.24-1.86.649-2.67 1.209l1.232-.049Z" opacity=".4"/><path fill="#9C9C9C" d="M185.811 122.615c-.477 0-.991 0-1.547-.084a22.094 22.094 0 0 1-14.85-7.703c-.248-.29-.477-.605-.707-.888a8.4 8.4 0 0 1-3.975-3.257c-1.468-2.417-1.124-5.492-.737-7.576.199-1.094.459-2.181.767-3.25.036-.357.085-.713.139-1.07a9.066 9.066 0 0 1 1.867-4.586c.127-.145.254-.283.393-.416a13.955 13.955 0 0 1 4.084-5.13 14.172 14.172 0 0 1 6.211-2.29c3.927-.652 7.358-.344 10.216.919 2.026.926 3.815 2.3 5.232 4.017l1.903.315-.078.459-1.378-.23a21.387 21.387 0 0 1 3.456 6.646c.491 1.479.823 3.006.991 4.555a7.93 7.93 0 0 1 1.583 6.525 13.098 13.098 0 0 1-1.65 3.541 33.194 33.194 0 0 1-4.029 5.794 11.402 11.402 0 0 1-6.042 3.625c-.612.085-1.231.113-1.849.084Zm-16.246-8.337.206.254a21.655 21.655 0 0 0 14.554 7.546 11.79 11.79 0 0 0 3.244-.067 10.912 10.912 0 0 0 5.806-3.462 32.653 32.653 0 0 0 3.97-5.715 12.753 12.753 0 0 0 1.601-3.408 7.31 7.31 0 0 0-1.052-5.485 15.595 15.595 0 0 1-.29 3.975 11.537 11.537 0 0 1-5.322 7.739 14.482 14.482 0 0 1-6.084 1.607 31.778 31.778 0 0 1-8.597-.477 13.947 13.947 0 0 1-4.659-1.631 22.991 22.991 0 0 1-2.024-.441c-.489-.127-.93-.266-1.353-.423v-.012Zm4.725 1.045a15.77 15.77 0 0 0 3.377.991c2.785.538 5.631.697 8.458.471a13.998 13.998 0 0 0 5.891-1.553 11.038 11.038 0 0 0 5.093-7.425c.31-1.524.386-3.087.224-4.634a9.368 9.368 0 0 0-1.517-1.534 12.323 12.323 0 0 0-4.169-2.127c2.036 3.516 2.03 8.005-.235 11.032a8.774 8.774 0 0 1-7.329 3.438 15.805 15.805 0 0 1-3.824 1.142 21.598 21.598 0 0 1-5.969.241v-.042Zm-1.209-.604c2.352.383 4.751.372 7.099-.03a16.153 16.153 0 0 0 2.955-.792 8.253 8.253 0 0 1-6.477-6.096 7.857 7.857 0 0 1 3.329-8.204 9.612 9.612 0 0 1 4.598-1.354 21.853 21.853 0 0 0-3.825 0v-.465a16.503 16.503 0 0 1 5.275.29c.204.052.406.114.604.187.302 0 .604.037.924.067 1.033.091 2.058.25 3.069.477-.2-.27-.414-.53-.64-.78-2.834-3.099-7.443-4.663-12.331-4.186a9.863 9.863 0 0 0-4.012 1.118 9.209 9.209 0 0 0-3.625 4.229 14.349 14.349 0 0 0-.803 10.029 9.93 9.93 0 0 0 3.311 5.117c.193.133.374.26.561.381l-.012.012Zm-4.072-1.166c.657.274 1.331.504 2.018.689.318.084.645.163.979.235a10.558 10.558 0 0 1-3.22-5.153 14.799 14.799 0 0 1 .773-10.416 9.713 9.713 0 0 1 3.824-4.429 10.444 10.444 0 0 1 4.199-1.172c5.033-.49 9.788 1.13 12.718 4.332.361.402.694.828.997 1.275a13.149 13.149 0 0 1 4.833 2.356c.402.32.778.672 1.124 1.051a22.535 22.535 0 0 0-.882-3.74 20.709 20.709 0 0 0-3.704-6.887c-7.038-1.13-14.355-1.812-21.061.242a10.187 10.187 0 0 0-4.06 2.126c-.115.224-.229.46-.344.695a33.45 33.45 0 0 0-1.976 5.184 19.937 19.937 0 0 0 3.782 13.612Zm18.766-14.796a5.081 5.081 0 0 1 2.253 2.628 6.88 6.88 0 0 1 .26 2.695c-.224 3.425-1.498 6.343-3.583 8.216a9.648 9.648 0 0 1-1.685 1.209 8.266 8.266 0 0 0 6.041-3.245c2.248-3.021 2.145-7.522-.054-10.935a21.276 21.276 0 0 0-3.232-.55v-.018Zm-2.127-.121a9.913 9.913 0 0 0-5.407 1.323 7.393 7.393 0 0 0-3.118 7.697 7.784 7.784 0 0 0 6.096 5.746c.262.047.526.08.792.096a9.822 9.822 0 0 0 2.38-1.552c1.994-1.813 3.214-4.592 3.426-7.897a6.438 6.438 0 0 0-.23-2.507 5.032 5.032 0 0 0-3.075-2.882c-.296.006-.586-.006-.864-.006v-.018Zm-20.983 3.498c-.072.351-.145.701-.211 1.051-.375 2.012-.707 4.948.677 7.25a7.499 7.499 0 0 0 3.02 2.707 20.609 20.609 0 0 1-3.486-10.99v-.018Zm16.639-15.654a22.836 22.836 0 0 0-3.752.326 13.626 13.626 0 0 0-6.011 2.242 12.476 12.476 0 0 0-3.402 3.963 12.381 12.381 0 0 1 3.341-1.504c6.646-2.054 13.799-1.432 20.723-.345a13.971 13.971 0 0 0-4.706-3.474 15.144 15.144 0 0 0-6.193-1.208Z"/><path fill="#9C9C9C" d="M183.841 119.208h-.278a11.119 11.119 0 0 1-3.945-.985 20.174 20.174 0 0 1-1.371-.634 16.023 16.023 0 0 1-13.455-9.401 8.374 8.374 0 0 1-.743-2.731 7.247 7.247 0 0 1 1.208-4.308 8.41 8.41 0 0 1 3.939-10.27 15.276 15.276 0 0 1 6.61-1.97c2.973-.35 5.985.047 8.766 1.154l.127.054a25.375 25.375 0 0 1 3.021.14 27.01 27.01 0 0 1 14.228 6.01c.979.816 2.115 1.934 2.205 3.384a5.085 5.085 0 0 1-.87 2.737 19.584 19.584 0 0 1-4.06 5.141 4.262 4.262 0 0 1-1.045 1.118 10.423 10.423 0 0 1-.604 3.184 11.675 11.675 0 0 1-3.021 4.477c-1.166 1.087-3.021 2.416-5.329 2.453a9.58 9.58 0 0 1-2.114-.236 8.452 8.452 0 0 1-3.269.683Zm-4.501-1.601c.145.072.296.133.447.199a10.89 10.89 0 0 0 3.794.949 7.564 7.564 0 0 0 2.743-.417 36.71 36.71 0 0 1-3.896-1.166c-.747.218-1.514.354-2.29.405-.266.018-.532.03-.798.03Zm8.459.604c.466.084.939.123 1.413.115 2.151-.055 3.927-1.299 5.033-2.332a11.187 11.187 0 0 0 2.894-4.302c.314-.873.505-1.786.568-2.713a9.203 9.203 0 0 1-2.973 1.1h-.133c-.344.098-.692.179-1.045.242a13.687 13.687 0 0 1-3.069 5.806 9.739 9.739 0 0 1-2.688 2.066v.018Zm-4.713-1.263c1.136.393 2.32.731 3.553 1.027l.429.097a9.555 9.555 0 0 0 3.093-2.217 13.188 13.188 0 0 0 2.912-5.438 9.463 9.463 0 0 1-2.193.036c-.471.282-.949.554-1.432.816a14.742 14.742 0 0 1-3.951 4.072 8.317 8.317 0 0 1-2.381 1.589l-.03.018Zm-4.718.212c.577.036 1.156.036 1.733 0a11.042 11.042 0 0 0 1.608-.23 10.765 10.765 0 0 1-3.625.091l.284.139Zm-12.942-15.437a6.647 6.647 0 0 0-.93 3.71 7.85 7.85 0 0 0 .707 2.592 15.606 15.606 0 0 0 12.041 9.032l-.604-.369-.423-.132a10.874 10.874 0 0 1-6.12-5.269 11.572 11.572 0 0 1-.889-2.296c-.374-.604-.713-1.141-1.015-1.655a17.528 17.528 0 0 1-1.576-3.202 11.655 11.655 0 0 1-.605-1.106 12.285 12.285 0 0 1-.586-1.323v.018Zm11.395 14.555a10.23 10.23 0 0 0 4.078.314 27.146 27.146 0 0 1-6.845-4.145 41.472 41.472 0 0 1-3.976-3.945l-.676-.761c.066.356.145.707.235 1.045a28.85 28.85 0 0 0 3.19 4.181 20.867 20.867 0 0 0 3.994 3.293v.018Zm-7.57-9.371c.38.441.761.87 1.142 1.293a40.413 40.413 0 0 0 3.927 3.903 26.714 26.714 0 0 0 7.419 4.326 9.768 9.768 0 0 0 2.29-.78 9.655 9.655 0 0 0 1.208-.676 14.893 14.893 0 0 0 2.108-2.544l.164-.254a10.378 10.378 0 0 1-4.175.864c-2.852-.054-5.83-1.722-7.969-4.452a7.434 7.434 0 0 1-1.36-2.417 9.464 9.464 0 0 1 0-4.096c.411-2.677 1.076-5.353 3.118-6.81 1.136-.803 2.616-1.208 4.664-1.208h.121a12.505 12.505 0 0 1 6.162 1.414c.396.064.785.156 1.166.278a16.769 16.769 0 0 0-.936-.435 23.236 23.236 0 0 0-7.6-1.746 13.834 13.834 0 0 0-3.088.133 10.269 10.269 0 0 0-7.6 6.042 13.2 13.2 0 0 0-.894 5.522c.024.574.066 1.117.133 1.643Zm.954 3.553a10.494 10.494 0 0 0 4.803 5.081 20.352 20.352 0 0 1-2.519-2.266 26.025 26.025 0 0 1-2.284-2.815Zm18.016 1.401c-.169.278-.35.55-.531.816-.109.163-.224.332-.351.501.448-.469.866-.965 1.251-1.486l-.369.169Zm-6.313-17.37h-.139c-1.958 0-3.353.369-4.41 1.118-1.904 1.36-2.538 3.933-2.937 6.519a9.019 9.019 0 0 0 0 3.897 7.103 7.103 0 0 0 1.281 2.284c2.06 2.628 4.906 4.229 7.625 4.283a10.575 10.575 0 0 0 4.597-1.081c.29-.471.568-.949.834-1.432-4.265-.991-7.643-4.356-10.367-7.069-.677-.677-1.293-1.353-1.36-2.247a2.485 2.485 0 0 1 .339-1.384 3.559 3.559 0 0 1 3.105-1.764h.042c.78-1.04 2.103-1.74 3.946-2.078.775-.14 1.562-.205 2.35-.194a12.99 12.99 0 0 0-4.906-.852ZM189.2 110.2c-.181.332-.362.664-.556.991l.266-.133.23-.121c.145-.224.29-.447.429-.671l-.369-.066Zm.852.133-.097.157.224-.127-.127-.03Zm3.426-1.68c-.604.465-1.209.9-1.813 1.311a15.33 15.33 0 0 0 1.559-.097c.054-.229.109-.459.157-.694.048-.236.066-.369.097-.544v.024Zm-3.172 1.251c.181 0 .368.036.556.042a26.808 26.808 0 0 0 2.718-1.945 18.164 18.164 0 0 0-.139-5.867 15.188 15.188 0 0 1-1.25 3.945 35.527 35.527 0 0 1-1.885 3.801v.024Zm-.858-.182.387.103a34.277 34.277 0 0 0 1.945-3.921 14.343 14.343 0 0 0 1.245-4.036 5.691 5.691 0 0 0 0-1.498 18.255 18.255 0 0 0-.556-1.565 5.804 5.804 0 0 0-2.695-2.368 5.19 5.19 0 0 0-.604-.236 7.153 7.153 0 0 1 2.803 4.834 9.691 9.691 0 0 1-.471 3.558 28.259 28.259 0 0 1-2.054 5.105v.024Zm4.549-1.486c-.048.345-.108.683-.181 1.027-.036.182-.078.363-.121.544.266-.036.538-.079.804-.133a11.07 11.07 0 0 0 3.166-1.498l.072-.049a12.121 12.121 0 0 0-.441-3.129 26.907 26.907 0 0 1-3.305 3.214l.006.024Zm-13.291-10.138-.037.06c-1.099 1.783-.308 4.169.798 5.807a14.79 14.79 0 0 0 6.483 5.177c.38.164.737.303 1.081.423a28.082 28.082 0 0 0 2.024-5.141 9.31 9.31 0 0 0 .453-3.396 6.926 6.926 0 0 0-3.498-5.093l-.079-.048a10.404 10.404 0 0 0-3.389.09 5.944 5.944 0 0 0-3.492 1.686c.239.041.472.11.695.206a3.677 3.677 0 0 1 2.018 4.229l-.429-.121a3.208 3.208 0 0 0-1.764-3.685 2.829 2.829 0 0 0-.84-.218l-.024.024Zm-.514 0a3.096 3.096 0 0 0-2.465 1.523 2.017 2.017 0 0 0-.284 1.142c.055.737.604 1.347 1.208 1.957a35.667 35.667 0 0 0 6.133 5.226 14.284 14.284 0 0 1-3.71-3.721c-1.105-1.74-1.921-4.218-.858-6.157l-.024.03Zm17.424 6.465c.318 1.048.499 2.132.538 3.226.23-.181.465-.362.689-.562.157-.265.273-.552.344-.852.302-1.341-.296-2.839-1.812-4.579a24.669 24.669 0 0 0-3.021-2.882 14.121 14.121 0 0 1 3.111 5.141c.206-.253.405-.519.604-.779l.357.266c-.242.344-.508.689-.81 1.021Zm-29.604 1.534c.187.339.375.665.568.991l.338.562a8.775 8.775 0 0 1-.084-.556 18.191 18.191 0 0 1-.822-.997Zm25.442-5.836c.686 2.37.891 4.854.604 7.305a26.507 26.507 0 0 0 3.063-3.088 13.696 13.696 0 0 0-3.154-5.31 16.434 16.434 0 0 0-1.468-1.342c0 .055.048.11.079.164.09.205.181.41.265.604.296.508.5 1.064.605 1.643l.006.024Zm-1.559-3.625a25.143 25.143 0 0 1 5.824 4.876c1.637 1.861 2.266 3.486 1.927 4.972v.048a20.05 20.05 0 0 0 3.257-4.362 4.655 4.655 0 0 0 .809-2.489c-.078-1.275-1.13-2.308-2.042-3.057a26.507 26.507 0 0 0-13.986-5.915 25.617 25.617 0 0 0-2.042-.133 15.848 15.848 0 0 1 6.253 6.06Zm-24.88 7.25a21.703 21.703 0 0 0 1.722 2.417c-.03-.326-.048-.665-.06-1.003-.1-1.948.217-3.894.93-5.71a10.704 10.704 0 0 1 4.622-5.135 19.415 19.415 0 0 0-6.489 4.326 15.62 15.62 0 0 0-.761.803 6.504 6.504 0 0 0-.344 2.417c.043.643.171 1.276.38 1.885Zm-1.287-2.706c.142.425.307.843.496 1.25 0-.145-.03-.284-.036-.429-.028-.55.01-1.102.114-1.643a28.72 28.72 0 0 0-.574.846v-.024Zm12.174-11.957c-.676 0-1.365.03-2.072.097-2.256.141-4.45.794-6.416 1.909a7.911 7.911 0 0 0-3.855 9.395 13.85 13.85 0 0 1 1.021-1.305 8.92 8.92 0 0 1 1.535-2.7 14.49 14.49 0 0 1 4.525-3.487 26.581 26.581 0 0 1 10.911-3.02 17.093 17.093 0 0 0-5.649-.865v-.024Zm6.688 1.311a26.08 26.08 0 0 0-11.738 3.021 14.144 14.144 0 0 0-4.393 3.371c-.375.457-.703.95-.979 1.474 3.408-3.34 7.462-5.262 11.419-5.437a19.27 19.27 0 0 1 2.955.15 25.579 25.579 0 0 1 9.219 3.022 15.143 15.143 0 0 0-6.483-5.577v-.024Z"/><path fill="#000" d="M183.841 119.208h-.278a11.119 11.119 0 0 1-3.945-.985 20.174 20.174 0 0 1-1.371-.634 16.023 16.023 0 0 1-13.455-9.401 8.374 8.374 0 0 1-.743-2.731 7.247 7.247 0 0 1 1.208-4.308 8.41 8.41 0 0 1 3.939-10.27 15.276 15.276 0 0 1 6.61-1.97c2.973-.35 5.985.047 8.766 1.154l.127.054a25.375 25.375 0 0 1 3.021.14 27.01 27.01 0 0 1 14.228 6.01c.979.816 2.115 1.934 2.205 3.384a5.085 5.085 0 0 1-.87 2.737 19.584 19.584 0 0 1-4.06 5.141 4.262 4.262 0 0 1-1.045 1.118 10.423 10.423 0 0 1-.604 3.184 11.675 11.675 0 0 1-3.021 4.477c-1.166 1.087-3.021 2.416-5.329 2.453a9.58 9.58 0 0 1-2.114-.236 8.452 8.452 0 0 1-3.269.683Zm-4.501-1.601c.145.072.296.133.447.199a10.89 10.89 0 0 0 3.794.949 7.564 7.564 0 0 0 2.743-.417 36.71 36.71 0 0 1-3.896-1.166c-.747.218-1.514.354-2.29.405-.266.018-.532.03-.798.03Zm8.459.604c.466.084.939.123 1.413.115 2.151-.055 3.927-1.299 5.033-2.332a11.187 11.187 0 0 0 2.894-4.302c.314-.873.505-1.786.568-2.713a9.203 9.203 0 0 1-2.973 1.1h-.133c-.344.098-.692.179-1.045.242a13.687 13.687 0 0 1-3.069 5.806 9.739 9.739 0 0 1-2.688 2.066v.018Zm-4.713-1.263c1.136.393 2.32.731 3.553 1.027l.429.097a9.555 9.555 0 0 0 3.093-2.217 13.188 13.188 0 0 0 2.912-5.438 9.463 9.463 0 0 1-2.193.036c-.471.282-.949.554-1.432.816a14.742 14.742 0 0 1-3.951 4.072 8.317 8.317 0 0 1-2.381 1.589l-.03.018Zm-4.718.212c.577.036 1.156.036 1.733 0a11.042 11.042 0 0 0 1.608-.23 10.765 10.765 0 0 1-3.625.091l.284.139Zm-12.942-15.437a6.647 6.647 0 0 0-.93 3.71 7.85 7.85 0 0 0 .707 2.592 15.606 15.606 0 0 0 12.041 9.032l-.604-.369-.423-.132a10.874 10.874 0 0 1-6.12-5.269 11.572 11.572 0 0 1-.889-2.296c-.374-.604-.713-1.141-1.015-1.655a17.528 17.528 0 0 1-1.576-3.202 11.655 11.655 0 0 1-.605-1.106 12.285 12.285 0 0 1-.586-1.323v.018Zm11.395 14.555a10.23 10.23 0 0 0 4.078.314 27.146 27.146 0 0 1-6.845-4.145 41.472 41.472 0 0 1-3.976-3.945l-.676-.761c.066.356.145.707.235 1.045a28.85 28.85 0 0 0 3.19 4.181 20.867 20.867 0 0 0 3.994 3.293v.018Zm-7.57-9.371c.38.441.761.87 1.142 1.293a40.413 40.413 0 0 0 3.927 3.903 26.714 26.714 0 0 0 7.419 4.326 9.768 9.768 0 0 0 2.29-.78 9.655 9.655 0 0 0 1.208-.676 14.893 14.893 0 0 0 2.108-2.544l.164-.254a10.378 10.378 0 0 1-4.175.864c-2.852-.054-5.83-1.722-7.969-4.452a7.434 7.434 0 0 1-1.36-2.417 9.464 9.464 0 0 1 0-4.096c.411-2.677 1.076-5.353 3.118-6.81 1.136-.803 2.616-1.208 4.664-1.208h.121a12.505 12.505 0 0 1 6.162 1.414c.396.064.785.156 1.166.278a16.769 16.769 0 0 0-.936-.435 23.236 23.236 0 0 0-7.6-1.746 13.834 13.834 0 0 0-3.088.133 10.269 10.269 0 0 0-7.6 6.042 13.2 13.2 0 0 0-.894 5.522c.024.574.066 1.117.133 1.643Zm.954 3.553a10.494 10.494 0 0 0 4.803 5.081 20.352 20.352 0 0 1-2.519-2.266 26.025 26.025 0 0 1-2.284-2.815Zm18.016 1.401c-.169.278-.35.55-.531.816-.109.163-.224.332-.351.501.448-.469.866-.965 1.251-1.486l-.369.169Zm-6.313-17.37h-.139c-1.958 0-3.353.369-4.41 1.118-1.904 1.36-2.538 3.933-2.937 6.519a9.019 9.019 0 0 0 0 3.897 7.103 7.103 0 0 0 1.281 2.284c2.06 2.628 4.906 4.229 7.625 4.283a10.575 10.575 0 0 0 4.597-1.081c.29-.471.568-.949.834-1.432-4.265-.991-7.643-4.356-10.367-7.069-.677-.677-1.293-1.353-1.36-2.247a2.485 2.485 0 0 1 .339-1.384 3.559 3.559 0 0 1 3.105-1.764h.042c.78-1.04 2.103-1.74 3.946-2.078.775-.14 1.562-.205 2.35-.194a12.99 12.99 0 0 0-4.906-.852ZM189.2 110.2c-.181.332-.362.664-.556.991l.266-.133.23-.121c.145-.224.29-.447.429-.671l-.369-.066Zm.852.133-.097.157.224-.127-.127-.03Zm3.426-1.68c-.604.465-1.209.9-1.813 1.311a15.33 15.33 0 0 0 1.559-.097c.054-.229.109-.459.157-.694.048-.236.066-.369.097-.544v.024Zm-3.172 1.251c.181 0 .368.036.556.042a26.808 26.808 0 0 0 2.718-1.945 18.164 18.164 0 0 0-.139-5.867 15.188 15.188 0 0 1-1.25 3.945 35.527 35.527 0 0 1-1.885 3.801v.024Zm-.858-.182.387.103a34.277 34.277 0 0 0 1.945-3.921 14.343 14.343 0 0 0 1.245-4.036 5.691 5.691 0 0 0 0-1.498 18.255 18.255 0 0 0-.556-1.565 5.804 5.804 0 0 0-2.695-2.368 5.19 5.19 0 0 0-.604-.236 7.153 7.153 0 0 1 2.803 4.834 9.691 9.691 0 0 1-.471 3.558 28.259 28.259 0 0 1-2.054 5.105v.024Zm4.549-1.486c-.048.345-.108.683-.181 1.027-.036.182-.078.363-.121.544.266-.036.538-.079.804-.133a11.07 11.07 0 0 0 3.166-1.498l.072-.049a12.121 12.121 0 0 0-.441-3.129 26.907 26.907 0 0 1-3.305 3.214l.006.024Zm-13.291-10.138-.037.06c-1.099 1.783-.308 4.169.798 5.807a14.79 14.79 0 0 0 6.483 5.177c.38.164.737.303 1.081.423a28.082 28.082 0 0 0 2.024-5.141 9.31 9.31 0 0 0 .453-3.396 6.926 6.926 0 0 0-3.498-5.093l-.079-.048a10.404 10.404 0 0 0-3.389.09 5.944 5.944 0 0 0-3.492 1.686c.239.041.472.11.695.206a3.677 3.677 0 0 1 2.018 4.229l-.429-.121a3.208 3.208 0 0 0-1.764-3.685 2.829 2.829 0 0 0-.84-.218l-.024.024Zm-.514 0a3.096 3.096 0 0 0-2.465 1.523 2.017 2.017 0 0 0-.284 1.142c.055.737.604 1.347 1.208 1.957a35.667 35.667 0 0 0 6.133 5.226 14.284 14.284 0 0 1-3.71-3.721c-1.105-1.74-1.921-4.218-.858-6.157l-.024.03Zm17.424 6.465c.318 1.048.499 2.132.538 3.226.23-.181.465-.362.689-.562.157-.265.273-.552.344-.852.302-1.341-.296-2.839-1.812-4.579a24.669 24.669 0 0 0-3.021-2.882 14.121 14.121 0 0 1 3.111 5.141c.206-.253.405-.519.604-.779l.357.266c-.242.344-.508.689-.81 1.021Zm-29.604 1.534c.187.339.375.665.568.991l.338.562a8.775 8.775 0 0 1-.084-.556 18.191 18.191 0 0 1-.822-.997Zm25.442-5.836c.686 2.37.891 4.854.604 7.305a26.507 26.507 0 0 0 3.063-3.088 13.696 13.696 0 0 0-3.154-5.31 16.434 16.434 0 0 0-1.468-1.342c0 .055.048.11.079.164.09.205.181.41.265.604.296.508.5 1.064.605 1.643l.006.024Zm-1.559-3.625a25.143 25.143 0 0 1 5.824 4.876c1.637 1.861 2.266 3.486 1.927 4.972v.048a20.05 20.05 0 0 0 3.257-4.362 4.655 4.655 0 0 0 .809-2.489c-.078-1.275-1.13-2.308-2.042-3.057a26.507 26.507 0 0 0-13.986-5.915 25.617 25.617 0 0 0-2.042-.133 15.848 15.848 0 0 1 6.253 6.06Zm-24.88 7.25a21.703 21.703 0 0 0 1.722 2.417c-.03-.326-.048-.665-.06-1.003-.1-1.948.217-3.894.93-5.71a10.704 10.704 0 0 1 4.622-5.135 19.415 19.415 0 0 0-6.489 4.326 15.62 15.62 0 0 0-.761.803 6.504 6.504 0 0 0-.344 2.417c.043.643.171 1.276.38 1.885Zm-1.287-2.706c.142.425.307.843.496 1.25 0-.145-.03-.284-.036-.429-.028-.55.01-1.102.114-1.643a28.72 28.72 0 0 0-.574.846v-.024Zm12.174-11.957c-.676 0-1.365.03-2.072.097-2.256.141-4.45.794-6.416 1.909a7.911 7.911 0 0 0-3.855 9.395 13.85 13.85 0 0 1 1.021-1.305 8.92 8.92 0 0 1 1.535-2.7 14.49 14.49 0 0 1 4.525-3.487 26.581 26.581 0 0 1 10.911-3.02 17.093 17.093 0 0 0-5.649-.865v-.024Zm6.688 1.311a26.08 26.08 0 0 0-11.738 3.021 14.144 14.144 0 0 0-4.393 3.371c-.375.457-.703.95-.979 1.474 3.408-3.34 7.462-5.262 11.419-5.437a19.27 19.27 0 0 1 2.955.15 25.579 25.579 0 0 1 9.219 3.022 15.143 15.143 0 0 0-6.483-5.577v-.024Z" opacity=".2"/><path fill="#9C9C9C" d="M57.752 123.594a12.077 12.077 0 0 1-5.57-1.323 6.581 6.581 0 0 1-1.813-1.317 5.806 5.806 0 0 1-1.438-3.275 6.75 6.75 0 0 1-2.73-8.392 12.386 12.386 0 0 1 3.087-4.609 14.497 14.497 0 0 1 6-3.776l.108-.031a20.742 20.742 0 0 1 1.945-1.468 21.496 21.496 0 0 1 11.794-3.564c1.015 0 2.277.115 3.063.966.48.62.772 1.364.84 2.145.32 1.74.346 3.52.078 5.268.047.405.02.814-.079 1.209a8.536 8.536 0 0 1 1.209 2.29 9.463 9.463 0 0 1 .392 4.319 6.817 6.817 0 0 1-2.06 4.23 7.467 7.467 0 0 1-1.42.942 6.754 6.754 0 0 1-1.848 2.235 8.864 8.864 0 0 1-2.936 1.414c-.387.121-.774.224-1.166.308a12.73 12.73 0 0 1-7.456 2.429Zm-8.458-5.667a5.272 5.272 0 0 0 1.293 2.785c.506.509 1.094.93 1.74 1.245a12.333 12.333 0 0 0 11.986-.604l-.55.084-.326.133a8.632 8.632 0 0 1-6.44-.127 9.354 9.354 0 0 1-1.71-.972 47.02 47.02 0 0 1-1.462-.502 14.038 14.038 0 0 1-2.58-1.208c-.32-.109-.604-.236-.942-.369a9.794 9.794 0 0 1-.991-.465h-.018Zm7.353 2.979a8.297 8.297 0 0 0 5.546.694 16.882 16.882 0 0 1-2.707-.114 20.232 20.232 0 0 1-2.821-.58h-.018Zm-1.209-.732c1.327.444 2.692.764 4.078.955a16.66 16.66 0 0 0 4.139 0 8.276 8.276 0 0 0 2.67-1.897 21.872 21.872 0 0 1-6.283.967 31.03 31.03 0 0 1-4.44-.411l-.81-.121c.241.163.447.344.676.532l-.03-.025Zm11.576-1.184a8.678 8.678 0 0 1-2.2 1.916l.267-.055c.374-.275.73-.576 1.063-.9.317-.298.612-.62.882-.961h-.012Zm.604-.205c-.346.52-.752.999-1.208 1.426a8.203 8.203 0 0 1-.477.435l.38-.109a8.656 8.656 0 0 0 2.822-1.359 6.25 6.25 0 0 0 1.486-1.662c-.98.484-1.987.913-3.015 1.287l.012-.018Zm-14.5.526c.29.114.574.223.864.326l.49.175a7.869 7.869 0 0 1-.333-.302l-1.02-.199Zm1.209-.133 1.359.217c1.453.238 2.92.373 4.392.405 2.3-.003 4.583-.381 6.76-1.118a8.053 8.053 0 0 0 1.028-1.655c.15-.335.281-.678.392-1.027.098-.886.098-1.779 0-2.665v-.235a8.514 8.514 0 0 1-2.144 2.676c-1.813 1.426-4.471 1.915-7.172 1.317a5.73 5.73 0 0 1-2.06-.815 7.306 7.306 0 0 1-2.066-2.532c-1.094-1.873-2.03-3.879-1.505-5.824a6.461 6.461 0 0 1 2.278-3.136 10.057 10.057 0 0 1 4.61-2.35 6.05 6.05 0 0 1 .864-.429c-.266.061-.532.133-.798.206-2 .619-3.882 1.573-5.564 2.821a11.068 11.068 0 0 0-1.812 1.668 8.351 8.351 0 0 0-1.656 7.642 10.662 10.662 0 0 0 2.23 3.885c.223.357.525.677.827.967l.037-.018Zm-2.919-.695c.738.255 1.493.457 2.26.604a9.715 9.715 0 0 1-.544-.604 10.88 10.88 0 0 1-2.302-4.018 8.687 8.687 0 0 1 .266-5.534 15.905 15.905 0 0 0-1.812 5.993 11.83 11.83 0 0 0-.067.888 5.26 5.26 0 0 0 1.01 1.686c.35.381.75.712 1.19.985Zm17.165-2.417a6.89 6.89 0 0 1-.677 2.23c.92-.357 1.822-.76 2.7-1.209l.32-.157c.46-.927.73-1.935.798-2.966a10.679 10.679 0 0 0-.936-4.834c-.4.434-.85.819-1.341 1.148a23.67 23.67 0 0 1-.472 1.239 11.935 11.935 0 0 1-.392 4.573v-.024Zm-19.334 1.378c.304.192.618.365.943.519a5.434 5.434 0 0 1-1.003-1.323c.018.302.036.568.067.828l-.007-.024Zm5.438-15.993a14.675 14.675 0 0 0-5.172 3.456 12.021 12.021 0 0 0-3.02 4.477 6.917 6.917 0 0 0 .114 5.238 6.718 6.718 0 0 0 2.23 2.562 10.773 10.773 0 0 1 0-1.335 7.101 7.101 0 0 1-.411-2.459c.05-1.548.403-3.071 1.039-4.483a21.569 21.569 0 0 1 5.232-7.437l-.012-.019Zm4.628 1.553a10.505 10.505 0 0 0-3.54 2.054 6.047 6.047 0 0 0-2.157 2.955c-.496 1.812.41 3.739 1.462 5.546a7.168 7.168 0 0 0 1.957 2.417c.591.378 1.25.639 1.94.767 2.597.574 5.165.103 6.869-1.257a8.593 8.593 0 0 0 2.296-3.021 23.638 23.638 0 0 0-.206-1.311c-3.135 1.565-6.918 1.209-9.968.925-.72.017-1.42-.23-1.97-.695a2.07 2.07 0 0 1-.49-1.033 2.914 2.914 0 0 1 1.058-2.701 4.93 4.93 0 0 1 1.396-3.311 9.36 9.36 0 0 1 1.365-1.311l-.012-.024Zm11.727 5.83a11.089 11.089 0 0 1 1.027 5.178 8.112 8.112 0 0 1-.604 2.652c.327-.188.637-.406.924-.652a6.41 6.41 0 0 0 1.94-4.03 9.064 9.064 0 0 0-.375-4.151 8.042 8.042 0 0 0-1.015-1.975 7.634 7.634 0 0 1-1.281 2.211l-.073.079a8.596 8.596 0 0 1-.531.712l-.012-.024Zm-15.497-7.667a21.154 21.154 0 0 0-5.752 7.855 11.472 11.472 0 0 0-1.015 4.344c-.002.472.042.944.133 1.407.423-3.812 1.964-7.081 4.332-9.201.594-.525 1.23-1 1.903-1.42a20.385 20.385 0 0 1 7.214-2.864 11.97 11.97 0 0 0-6.803-.096l-.012-.025ZM68.5 112.52c.036.26.06.519.085.779 0 .151 0 .314.036.477.03-.517.03-1.035 0-1.552a.912.912 0 0 1-.109.32l-.012-.024Zm-11.884-4.405a2.529 2.529 0 0 0-.755 2.212c.053.299.184.578.38.809.492.402 1.111.617 1.747.604 2.14.279 4.305.311 6.452.097a11.283 11.283 0 0 1-4.199-.411c-1.546-.465-3.304-1.583-3.625-3.311Zm11.655 2.9c.054.296.108.605.15.895.037-.073.067-.145.097-.218.03-.072.055-.127.085-.187l-.073-.641-.26.151Zm-11.328-3.165v.06c.217 1.667 1.909 2.743 3.413 3.196 2.164.603 4.456.573 6.604-.085a8.84 8.84 0 0 0 .882-.296 22.927 22.927 0 0 0-1.335-4.229 7.431 7.431 0 0 0-1.432-2.332 5.432 5.432 0 0 0-4.725-1.365h-.072a8.253 8.253 0 0 0-2.049 1.812 4.834 4.834 0 0 0-1.31 2.834c.167-.098.345-.175.531-.23a2.896 2.896 0 0 1 3.371 1.583l-.332.139a2.52 2.52 0 0 0-2.936-1.377 2.239 2.239 0 0 0-.61.271v.019Zm11.92 2.809v.145l.072-.193-.072.048Zm-7.522-8.295a5.6 5.6 0 0 1 3.993 1.546 7.744 7.744 0 0 1 1.505 2.447 22.865 22.865 0 0 1 1.347 4.229l.284-.133a27.666 27.666 0 0 0-.773-3.437 11.563 11.563 0 0 0-1.257-3.136 4.578 4.578 0 0 0-.761-.924 12.752 12.752 0 0 0-1.13-.683 4.516 4.516 0 0 0-2.858-.091c-.169.049-.344.109-.513.176l.163.006Zm5.486 1.474c.541.969.948 2.008 1.208 3.087.321 1.097.575 2.213.761 3.341l.369-.26c.286-.852.518-1.722.695-2.604a14.4 14.4 0 0 0-3.033-3.582v.018Zm3.31 4.03a19.75 19.75 0 0 1-.465 1.734c.322-.267.627-.554.913-.858a7.465 7.465 0 0 0-.254-.508c-.06-.121-.127-.266-.194-.386v.018Zm.11-.526c.138.236.277.477.404.725l.2.399c.144-.157.29-.326.428-.496a9.166 9.166 0 0 0 1.209-2.549v-.067a9.62 9.62 0 0 0-1.813-1.716 22.483 22.483 0 0 1-.429 3.686v.018Zm-4.339-4.664a14.716 14.716 0 0 1 4.072 4.229 21.89 21.89 0 0 0 .333-3.492 10.794 10.794 0 0 0-4.622-1.674 12.587 12.587 0 0 0-1.59-.078l.14.066.471.242c.444.163.853.407 1.208.719l-.012-.012Zm4.767.532a9.843 9.843 0 0 1 1.946 1.721c.06-.229.108-.465.15-.7a2.345 2.345 0 0 0-.223-.707c-.483-.985-1.607-1.607-3.432-1.897a18.584 18.584 0 0 0-3.323-.248c1.607.198 3.15.742 4.526 1.595v-.798h.362c-.024.315-.018.665-.018 1.015l.012.019Zm-4.658-2.194c1.058.001 2.115.086 3.16.254 1.945.314 3.154.997 3.697 2.097v.03c.137-1.46.076-2.931-.18-4.374a3.818 3.818 0 0 0-.756-1.958c-.689-.749-1.86-.852-2.797-.852a21.145 21.145 0 0 0-11.594 3.505c-.46.302-.9.604-1.33.966a12.571 12.571 0 0 1 6.918.544 20.13 20.13 0 0 1 2.87-.23l.012.018Z"/><path fill="#fff" d="M57.752 123.594a12.077 12.077 0 0 1-5.57-1.323 6.581 6.581 0 0 1-1.813-1.317 5.806 5.806 0 0 1-1.438-3.275 6.75 6.75 0 0 1-2.73-8.392 12.386 12.386 0 0 1 3.087-4.609 14.497 14.497 0 0 1 6-3.776l.108-.031a20.742 20.742 0 0 1 1.945-1.468 21.496 21.496 0 0 1 11.794-3.564c1.015 0 2.277.115 3.063.966.48.62.772 1.364.84 2.145.32 1.74.346 3.52.078 5.268.047.405.02.814-.079 1.209a8.536 8.536 0 0 1 1.209 2.29 9.463 9.463 0 0 1 .392 4.319 6.817 6.817 0 0 1-2.06 4.23 7.467 7.467 0 0 1-1.42.942 6.754 6.754 0 0 1-1.848 2.235 8.864 8.864 0 0 1-2.936 1.414c-.387.121-.774.224-1.166.308a12.73 12.73 0 0 1-7.456 2.429Zm-8.458-5.667a5.272 5.272 0 0 0 1.293 2.785c.506.509 1.094.93 1.74 1.245a12.333 12.333 0 0 0 11.986-.604l-.55.084-.326.133a8.632 8.632 0 0 1-6.44-.127 9.354 9.354 0 0 1-1.71-.972 47.02 47.02 0 0 1-1.462-.502 14.038 14.038 0 0 1-2.58-1.208c-.32-.109-.604-.236-.942-.369a9.794 9.794 0 0 1-.991-.465h-.018Zm7.353 2.979a8.297 8.297 0 0 0 5.546.694 16.882 16.882 0 0 1-2.707-.114 20.232 20.232 0 0 1-2.821-.58h-.018Zm-1.209-.732c1.327.444 2.692.764 4.078.955a16.66 16.66 0 0 0 4.139 0 8.276 8.276 0 0 0 2.67-1.897 21.872 21.872 0 0 1-6.283.967 31.03 31.03 0 0 1-4.44-.411l-.81-.121c.241.163.447.344.676.532l-.03-.025Zm11.576-1.184a8.678 8.678 0 0 1-2.2 1.916l.267-.055c.374-.275.73-.576 1.063-.9.317-.298.612-.62.882-.961h-.012Zm.604-.205c-.346.52-.752.999-1.208 1.426a8.203 8.203 0 0 1-.477.435l.38-.109a8.656 8.656 0 0 0 2.822-1.359 6.25 6.25 0 0 0 1.486-1.662c-.98.484-1.987.913-3.015 1.287l.012-.018Zm-14.5.526c.29.114.574.223.864.326l.49.175a7.869 7.869 0 0 1-.333-.302l-1.02-.199Zm1.209-.133 1.359.217c1.453.238 2.92.373 4.392.405 2.3-.003 4.583-.381 6.76-1.118a8.053 8.053 0 0 0 1.028-1.655c.15-.335.281-.678.392-1.027.098-.886.098-1.779 0-2.665v-.235a8.514 8.514 0 0 1-2.144 2.676c-1.813 1.426-4.471 1.915-7.172 1.317a5.73 5.73 0 0 1-2.06-.815 7.306 7.306 0 0 1-2.066-2.532c-1.094-1.873-2.03-3.879-1.505-5.824a6.461 6.461 0 0 1 2.278-3.136 10.057 10.057 0 0 1 4.61-2.35 6.05 6.05 0 0 1 .864-.429c-.266.061-.532.133-.798.206-2 .619-3.882 1.573-5.564 2.821a11.068 11.068 0 0 0-1.812 1.668 8.351 8.351 0 0 0-1.656 7.642 10.662 10.662 0 0 0 2.23 3.885c.223.357.525.677.827.967l.037-.018Zm-2.919-.695c.738.255 1.493.457 2.26.604a9.715 9.715 0 0 1-.544-.604 10.88 10.88 0 0 1-2.302-4.018 8.687 8.687 0 0 1 .266-5.534 15.905 15.905 0 0 0-1.812 5.993 11.83 11.83 0 0 0-.067.888 5.26 5.26 0 0 0 1.01 1.686c.35.381.75.712 1.19.985Zm17.165-2.417a6.89 6.89 0 0 1-.677 2.23c.92-.357 1.822-.76 2.7-1.209l.32-.157c.46-.927.73-1.935.798-2.966a10.679 10.679 0 0 0-.936-4.834c-.4.434-.85.819-1.341 1.148a23.67 23.67 0 0 1-.472 1.239 11.935 11.935 0 0 1-.392 4.573v-.024Zm-19.334 1.378c.304.192.618.365.943.519a5.434 5.434 0 0 1-1.003-1.323c.018.302.036.568.067.828l-.007-.024Zm5.438-15.993a14.675 14.675 0 0 0-5.172 3.456 12.021 12.021 0 0 0-3.02 4.477 6.917 6.917 0 0 0 .114 5.238 6.718 6.718 0 0 0 2.23 2.562 10.773 10.773 0 0 1 0-1.335 7.101 7.101 0 0 1-.411-2.459c.05-1.548.403-3.071 1.039-4.483a21.569 21.569 0 0 1 5.232-7.437l-.012-.019Zm4.628 1.553a10.505 10.505 0 0 0-3.54 2.054 6.047 6.047 0 0 0-2.157 2.955c-.496 1.812.41 3.739 1.462 5.546a7.168 7.168 0 0 0 1.957 2.417c.591.378 1.25.639 1.94.767 2.597.574 5.165.103 6.869-1.257a8.593 8.593 0 0 0 2.296-3.021 23.638 23.638 0 0 0-.206-1.311c-3.135 1.565-6.918 1.209-9.968.925-.72.017-1.42-.23-1.97-.695a2.07 2.07 0 0 1-.49-1.033 2.914 2.914 0 0 1 1.058-2.701 4.93 4.93 0 0 1 1.396-3.311 9.36 9.36 0 0 1 1.365-1.311l-.012-.024Zm11.727 5.83a11.089 11.089 0 0 1 1.027 5.178 8.112 8.112 0 0 1-.604 2.652c.327-.188.637-.406.924-.652a6.41 6.41 0 0 0 1.94-4.03 9.064 9.064 0 0 0-.375-4.151 8.042 8.042 0 0 0-1.015-1.975 7.634 7.634 0 0 1-1.281 2.211l-.073.079a8.596 8.596 0 0 1-.531.712l-.012-.024Zm-15.497-7.667a21.154 21.154 0 0 0-5.752 7.855 11.472 11.472 0 0 0-1.015 4.344c-.002.472.042.944.133 1.407.423-3.812 1.964-7.081 4.332-9.201.594-.525 1.23-1 1.903-1.42a20.385 20.385 0 0 1 7.214-2.864 11.97 11.97 0 0 0-6.803-.096l-.012-.025ZM68.5 112.52c.036.26.06.519.085.779 0 .151 0 .314.036.477.03-.517.03-1.035 0-1.552a.912.912 0 0 1-.109.32l-.012-.024Zm-11.884-4.405a2.529 2.529 0 0 0-.755 2.212c.053.299.184.578.38.809.492.402 1.111.617 1.747.604 2.14.279 4.305.311 6.452.097a11.283 11.283 0 0 1-4.199-.411c-1.546-.465-3.304-1.583-3.625-3.311Zm11.655 2.9c.054.296.108.605.15.895.037-.073.067-.145.097-.218.03-.072.055-.127.085-.187l-.073-.641-.26.151Zm-11.328-3.165v.06c.217 1.667 1.909 2.743 3.413 3.196 2.164.603 4.456.573 6.604-.085a8.84 8.84 0 0 0 .882-.296 22.927 22.927 0 0 0-1.335-4.229 7.431 7.431 0 0 0-1.432-2.332 5.432 5.432 0 0 0-4.725-1.365h-.072a8.253 8.253 0 0 0-2.049 1.812 4.834 4.834 0 0 0-1.31 2.834c.167-.098.345-.175.531-.23a2.896 2.896 0 0 1 3.371 1.583l-.332.139a2.52 2.52 0 0 0-2.936-1.377 2.239 2.239 0 0 0-.61.271v.019Zm11.92 2.809v.145l.072-.193-.072.048Zm-7.522-8.295a5.6 5.6 0 0 1 3.993 1.546 7.744 7.744 0 0 1 1.505 2.447 22.865 22.865 0 0 1 1.347 4.229l.284-.133a27.666 27.666 0 0 0-.773-3.437 11.563 11.563 0 0 0-1.257-3.136 4.578 4.578 0 0 0-.761-.924 12.752 12.752 0 0 0-1.13-.683 4.516 4.516 0 0 0-2.858-.091c-.169.049-.344.109-.513.176l.163.006Zm5.486 1.474c.541.969.948 2.008 1.208 3.087.321 1.097.575 2.213.761 3.341l.369-.26c.286-.852.518-1.722.695-2.604a14.4 14.4 0 0 0-3.033-3.582v.018Zm3.31 4.03a19.75 19.75 0 0 1-.465 1.734c.322-.267.627-.554.913-.858a7.465 7.465 0 0 0-.254-.508c-.06-.121-.127-.266-.194-.386v.018Zm.11-.526c.138.236.277.477.404.725l.2.399c.144-.157.29-.326.428-.496a9.166 9.166 0 0 0 1.209-2.549v-.067a9.62 9.62 0 0 0-1.813-1.716 22.483 22.483 0 0 1-.429 3.686v.018Zm-4.339-4.664a14.716 14.716 0 0 1 4.072 4.229 21.89 21.89 0 0 0 .333-3.492 10.794 10.794 0 0 0-4.622-1.674 12.587 12.587 0 0 0-1.59-.078l.14.066.471.242c.444.163.853.407 1.208.719l-.012-.012Zm4.767.532a9.843 9.843 0 0 1 1.946 1.721c.06-.229.108-.465.15-.7a2.345 2.345 0 0 0-.223-.707c-.483-.985-1.607-1.607-3.432-1.897a18.584 18.584 0 0 0-3.323-.248c1.607.198 3.15.742 4.526 1.595v-.798h.362c-.024.315-.018.665-.018 1.015l.012.019Zm-4.658-2.194c1.058.001 2.115.086 3.16.254 1.945.314 3.154.997 3.697 2.097v.03c.137-1.46.076-2.931-.18-4.374a3.818 3.818 0 0 0-.756-1.958c-.689-.749-1.86-.852-2.797-.852a21.145 21.145 0 0 0-11.594 3.505c-.46.302-.9.604-1.33.966a12.571 12.571 0 0 1 6.918.544 20.13 20.13 0 0 1 2.87-.23l.012.018Z" opacity=".4"/><path fill="#9C9C9C" d="M63.292 122.513a11.362 11.362 0 0 1-4.833-1.148l-1.426.38-.09-.35 1.033-.272a16.32 16.32 0 0 1-4.501-3.534 17.062 17.062 0 0 1-2.127-2.864 6.085 6.085 0 0 1-3.16-4.054 9.922 9.922 0 0 1 0-3.021c.14-1.8.47-3.58.985-5.31a8.726 8.726 0 0 1 3.093-4.423 9.378 9.378 0 0 1 2.327-1.118 16.916 16.916 0 0 1 12.79.69c.26.126.52.259.773.398h.103a6.41 6.41 0 0 1 3.697 1.015c1.813 1.238 2.514 3.474 2.9 5.051.205.827.369 1.664.49 2.507.09.266.169.526.241.791a6.963 6.963 0 0 1 .145 3.789c-.042.145-.09.277-.139.416a9.468 9.468 0 0 1-4.833 8.459c-2.531 1.691-5.027 2.555-7.413 2.58l-.055.018Zm-4.289-1.299a10.76 10.76 0 0 0 4.374.942c2.314 0 4.743-.87 7.214-2.525a10.549 10.549 0 0 0 3.486-3.456 9.576 9.576 0 0 0 1.118-3.843 9.37 9.37 0 0 1-1.855 2.103c-3.97 3.522-9.171 5.353-14.337 6.779Zm-7.057-6.199a17.198 17.198 0 0 0 1.813 2.332 15.86 15.86 0 0 0 4.755 3.625c5.262-1.438 10.585-3.25 14.608-6.815a7.79 7.79 0 0 0 2.163-2.761v-.604a25.467 25.467 0 0 0-.26-4.229 15.228 15.228 0 0 0-6.93-8.296c-.544.014-1.087.066-1.625.158a10.41 10.41 0 0 0-.755.139 8.086 8.086 0 0 1 3.867 2.579 11.342 11.342 0 0 1 2.749 7.51 7.404 7.404 0 0 1-1.275 4.296 7.847 7.847 0 0 1-2.556 2.138c-3.353 1.934-7.177 2.302-10.234.991a7.794 7.794 0 0 1-1.094-.574 10.01 10.01 0 0 1-4.114-.121 6.896 6.896 0 0 1-1.112-.368Zm5.764.405c.224.121.46.235.695.338 2.954 1.269 6.646.906 9.92-.967a7.55 7.55 0 0 0 2.417-2.042 6.994 6.994 0 0 0 1.208-4.09 10.973 10.973 0 0 0-2.652-7.25 7.637 7.637 0 0 0-3.927-2.525 6.726 6.726 0 0 0-.502-.09 16.296 16.296 0 0 0-4.942 2.259c-.65.436-1.257.934-1.812 1.486a6.315 6.315 0 0 1 6.434 2.211 6.043 6.043 0 0 1 .272 6.767 7.447 7.447 0 0 1-2.785 2.416 16.825 16.825 0 0 0 2.676-1.208l.163.32a12.421 12.421 0 0 1-3.77 1.462l-.465.055-.67.248c-.74.249-1.495.453-2.26.61Zm-6.102-.961a6.936 6.936 0 0 0 1.54.604 9.571 9.571 0 0 0 3.577.169c-2.525-1.812-3.939-4.942-3.317-7.769a6.687 6.687 0 0 1 4.03-4.707 11.922 11.922 0 0 1 2.308-2.005 16.659 16.659 0 0 1 4.108-2.024c-.9.021-1.793.147-2.664.374a23.908 23.908 0 0 0-6.042 2.344c-1.41.7-2.647 1.703-3.625 2.937a8.45 8.45 0 0 0-1.208 6.784 11.777 11.777 0 0 0 1.293 3.293Zm5.335-11.092a6.326 6.326 0 0 0-3.184 4.162c-.604 2.804.876 5.927 3.486 7.613.82-.138 1.628-.34 2.416-.604a3.883 3.883 0 0 1-2.416-1.124 5.322 5.322 0 0 1-1.033-1.813 9.104 9.104 0 0 1-.09-6.857c.222-.488.497-.95.82-1.377Zm.707-.321a7.49 7.49 0 0 0-1.172 1.813 8.76 8.76 0 0 0 .102 6.585c.204.618.528 1.189.955 1.68a3.828 3.828 0 0 0 3.05 1.033c1.886-.743 3.185-1.692 3.964-2.882a5.65 5.65 0 0 0-.254-6.35 5.97 5.97 0 0 0-6.041-2.084 5.362 5.362 0 0 0-.604.205Zm2.567-6.79c-1.862 0-3.712.308-5.473.912a9.129 9.129 0 0 0-2.242 1.075 8.349 8.349 0 0 0-2.96 4.229 25.377 25.377 0 0 0-.967 5.239 9.8 9.8 0 0 0-.036 2.881 5.56 5.56 0 0 0 2.465 3.493 11.844 11.844 0 0 1-1.057-2.864 8.814 8.814 0 0 1 1.274-7.069 11.059 11.059 0 0 1 3.734-3.021 24.405 24.405 0 0 1 6.15-2.38c1.225-.335 2.5-.445 3.764-.326.51-.138 1.026-.25 1.547-.333.363-.06.719-.102 1.063-.127l-.223-.114a16.193 16.193 0 0 0-7.039-1.595Zm8.604 2.036a15.773 15.773 0 0 1 5.902 6.579 21.396 21.396 0 0 0-.18-.804c-.376-1.516-1.07-3.673-2.762-4.833a5.753 5.753 0 0 0-2.96-.942Z"/><path fill="#9C9C9C" d="M56.006 121.455a20.76 20.76 0 0 1-5.437-.719c-.937-.259-2.079-.682-2.598-1.667a3.927 3.927 0 0 1-.26-2.181c.13-1.668.538-3.301 1.208-4.834.057-.39.184-.766.375-1.111a7.893 7.893 0 0 1-.604-2.417 8.907 8.907 0 0 1 .689-4.066 6.371 6.371 0 0 1 2.942-3.389 7.135 7.135 0 0 1 1.546-.508 6.406 6.406 0 0 1 2.26-1.595 8.645 8.645 0 0 1 3.063-.556h1.154a12.264 12.264 0 0 1 12.35 2.314 6.489 6.489 0 0 1 1.377 1.668 5.57 5.57 0 0 1 .531 3.377 7 7 0 0 1 1.71 3.305 6.9 6.9 0 0 1-1.208 5.105 11.656 11.656 0 0 1-3.988 3.456 13.883 13.883 0 0 1-6.416 1.957h-.109a19.91 19.91 0 0 1-2.156.858 20.453 20.453 0 0 1-6.429 1.003Zm-7.014-8.603a15.387 15.387 0 0 0-.894 4.066 3.578 3.578 0 0 0 .217 1.994c.46.87 1.517 1.25 2.417 1.492 3.82 1.039 7.86.938 11.624-.29.495-.163.985-.344 1.462-.55a12.127 12.127 0 0 1-6.277-2.247 19.427 19.427 0 0 1-5.6-1.565c-1.729-.779-2.677-1.716-2.913-2.858l-.036-.042Zm9.244 4.537a11.593 11.593 0 0 0 6.18 1.855h.097a19.928 19.928 0 0 0 7.25-5.788 10.87 10.87 0 0 0 2-3.74c.118-.436.191-.883.217-1.335-1.323 3.408-3.54 6.042-6.26 7.377-.679.332-1.384.609-2.108.828-1.666.53-3.399.821-5.147.864-.754.023-1.508.003-2.26-.061h.03Zm16.07-9.95a6.796 6.796 0 0 1-.223 2.362 11.075 11.075 0 0 1-2.054 3.861 20.222 20.222 0 0 1-6.646 5.534 13.939 13.939 0 0 0 5.637-1.873 11.425 11.425 0 0 0 3.872-3.353 6.042 6.042 0 0 0-.271-7.77c-.093.419-.208.832-.345 1.239h.03Zm-14.663 9.666h.804a17.607 17.607 0 0 0 5.83-1.208c.741-.277 1.45-.633 2.115-1.063a7.85 7.85 0 0 0 3.389-6.616 10.192 10.192 0 0 0-1.118-4.132 14.326 14.326 0 0 0-.604-1.1c-.405-.193-.81-.369-1.208-.544a30.338 30.338 0 0 0-3.97-1.48 20.391 20.391 0 0 0-6.537-.683 7.66 7.66 0 0 0-1.347 1.269 6.41 6.41 0 0 0-.604.846 11.523 11.523 0 0 0-.665 2.417l-.09.284a8.018 8.018 0 0 1 2.64-1.922c2.006-.858 4.61-.634 6.96.604.647.311 1.23.741 1.716 1.269a7.246 7.246 0 0 1 1.293 2.852c.555 2 .936 4.078 0 5.733a6.035 6.035 0 0 1-2.87 2.314 9.616 9.616 0 0 1-4.834.997 5.326 5.326 0 0 1-.93.151l.03.012Zm-3.244-1.136c.77.538 1.69.819 2.628.804.172-.001.343-.011.514-.03a5.54 5.54 0 0 1-3.474-2.471 7.483 7.483 0 0 1-.792-2.634 21.107 21.107 0 0 1-.211-4.23l-.302.049a26.566 26.566 0 0 0-.121 3.353c-.024 1.081.113 2.16.404 3.202.11.369.271.72.478 1.045.278.308.568.641.876.912Zm-5.057-2.483a10.442 10.442 0 0 0 3.879 2.701c.471.188.953.347 1.444.477l-.103-.09-.387-.345a3.838 3.838 0 0 1-.918-.96 14.123 14.123 0 0 1-2.743-4.9 20.644 20.644 0 0 0-1.172 3.136v-.019Zm13.769-.477a4.665 4.665 0 0 1-2.097 2.695 8.615 8.615 0 0 1-1.582.876 9.914 9.914 0 0 0 3.782-.991 5.683 5.683 0 0 0 2.718-2.169c.907-1.547.532-3.547 0-5.474a6.728 6.728 0 0 0-1.208-2.719 5.456 5.456 0 0 0-1.613-1.208c-2.266-1.208-4.755-1.402-6.646-.604a8.23 8.23 0 0 0-2.864 2.199c-.054.423-.096.84-.127 1.263 3.287-.653 6.7.604 9.462 1.661a2.9 2.9 0 0 1 1.655 1.136c.168.332.237.705.2 1.075a2.734 2.734 0 0 1-1.68 2.278v-.018Zm-9.703-5.643a21.04 21.04 0 0 0 .206 4.229 7.25 7.25 0 0 0 .755 2.514 5.313 5.313 0 0 0 4.048 2.447h.054a7.915 7.915 0 0 0 2.332-1.13 4.533 4.533 0 0 0 1.903-2.278c-.178.045-.36.07-.544.073a2.805 2.805 0 0 1-2.737-2.302l.339-.049a2.451 2.451 0 0 0 2.338 2.012h.048a2.13 2.13 0 0 0 .647-.121v-.054c.205-1.589-1.1-3.021-2.387-3.794a11.478 11.478 0 0 0-6.138-1.595c-.296.024-.592.036-.864.066v-.018Zm-6.138 4.731c-.027.236-.015.475.036.707.205 1.033 1.094 1.885 2.719 2.616.974.44 1.985.796 3.02 1.063a10.88 10.88 0 0 1-3.788-2.61c-.066.248-.12.489-.175.737l-.338-.072c.072-.327.15-.647.242-.967a9.757 9.757 0 0 1-1.39-2.078c-.127.247-.23.417-.326.622v-.018Zm3.455-2.187a14.003 14.003 0 0 0 1.94 4.048 11.718 11.718 0 0 1-.369-3.142 27.57 27.57 0 0 1 .11-3.269l-.4.151c-.475.715-.903 1.46-1.28 2.23v-.018Zm17.854-6.646c.127.217.247.447.362.683a10.373 10.373 0 0 1 1.148 4.271 8.211 8.211 0 0 1-1.601 5.039 14.857 14.857 0 0 0 3.16-5.063c.103-.272.2-.538.278-.798a5.05 5.05 0 0 0-.526-1.812 5.81 5.81 0 0 0-.882-1.208 16.193 16.193 0 0 0-1.94-1.094v-.018Zm-20.796 7.854c.341.734.776 1.42 1.293 2.042.332-1.134.76-2.238 1.281-3.299a15.893 15.893 0 0 1-.2-.773c-.03-.139-.06-.278-.084-.417l-.526.345a8.611 8.611 0 0 0-1.727 2.042l-.037.06Zm9.063-3.945c1.331.24 2.607.723 3.764 1.426 1.335.827 2.688 2.302 2.561 3.987a2.377 2.377 0 0 0 1.239-1.812 1.576 1.576 0 0 0-.163-.882 2.59 2.59 0 0 0-1.474-.985 27.643 27.643 0 0 0-5.927-1.698v-.036Zm-5.31-6.229a5.689 5.689 0 0 0-1.022.362 6.043 6.043 0 0 0-2.78 3.221 8.458 8.458 0 0 0-.658 3.909c.052.709.206 1.407.46 2.072a6.942 6.942 0 0 1 1.727-1.704l.079-.06c.212-.182.429-.345.653-.502a10.468 10.468 0 0 1 .308-5.02 7.6 7.6 0 0 1 1.232-2.242v-.036Zm-1.155 7.534c.036.175.073.356.115.532l.09.392c.266-.507.55-1.003.852-1.48-.363.177-.716.375-1.057.592v-.036Zm1.71-7.613a7.253 7.253 0 0 0-1.462 2.526 10.057 10.057 0 0 0-.32 4.7 7.006 7.006 0 0 1 1.522-.713c.236-.35.483-.688.743-1.021a11.139 11.139 0 0 1 1.468-4.084 6.354 6.354 0 0 1 1.172-1.879c-.938.088-1.872.223-2.797.405l-.326.066Zm.374 6.205-.114.157h.096l.018-.157Zm.43-.574-.091.604.278-.072c0-.29.048-.604.078-.864l-.127.139-.139.193Zm18.644-1.323c.06.091.115.186.163.284.197.382.343.788.435 1.208.06-.259.109-.507.145-.755a9.162 9.162 0 0 0-.743-.755v.018Zm-18.125-.822c-.163.469-.296.947-.399 1.432l.2-.235c.036-.248.072-.49.114-.737.043-.164.073-.321.103-.478l-.018.018Zm17.31-.217c.271.181.531.374.785.604.284.228.554.472.81.731a5.099 5.099 0 0 0-.526-2.888 6.27 6.27 0 0 0-1.305-1.583 11.94 11.94 0 0 0-11.226-2.55l.532.061.338-.042a8.392 8.392 0 0 1 5.927 1.746c.495.392.946.836 1.347 1.323.442.29.858.574 1.209.834.767.507 1.48 1.092 2.127 1.746l-.019.018Zm-2.478-1.378c.296.139.605.284.882.435-.235-.181-.477-.35-.707-.507l-.41-.29c.127.103.175.217.254.344l-.019.018Zm-10.808-2.809c1.854-.01 3.702.233 5.492.719 1.37.406 2.71.907 4.011 1.498l.713.321a9.18 9.18 0 0 0-.495-.659 21.9 21.9 0 0 0-3.547-1.91 15.832 15.832 0 0 0-3.83-1.032 7.949 7.949 0 0 0-2.942 1.07l.598-.007Zm3.836-1.136c.843.198 1.67.46 2.471.786.855.356 1.683.774 2.477 1.25a8.004 8.004 0 0 0-4.93-2.054l-.018.018Zm-3.673-.072h-.338a8.157 8.157 0 0 0-2.943.531 5.944 5.944 0 0 0-1.812 1.154 27.182 27.182 0 0 1 3.087-.411c.45-.388.943-.725 1.468-1.002.2-.115.369-.206.556-.29l-.018.018Zm.822 0c-.414.161-.817.347-1.209.555-.363.198-.712.42-1.045.665a8.18 8.18 0 0 1 2.501-1.208l-.247-.012Z"/><path fill="#000" d="M56.006 121.455a20.76 20.76 0 0 1-5.437-.719c-.937-.259-2.079-.682-2.598-1.667a3.927 3.927 0 0 1-.26-2.181c.13-1.668.538-3.301 1.208-4.834.057-.39.184-.766.375-1.111a7.893 7.893 0 0 1-.604-2.417 8.907 8.907 0 0 1 .689-4.066 6.371 6.371 0 0 1 2.942-3.389 7.135 7.135 0 0 1 1.546-.508 6.406 6.406 0 0 1 2.26-1.595 8.645 8.645 0 0 1 3.063-.556h1.154a12.264 12.264 0 0 1 12.35 2.314 6.489 6.489 0 0 1 1.377 1.668 5.57 5.57 0 0 1 .531 3.377 7 7 0 0 1 1.71 3.305 6.9 6.9 0 0 1-1.208 5.105 11.656 11.656 0 0 1-3.988 3.456 13.883 13.883 0 0 1-6.416 1.957h-.109a19.91 19.91 0 0 1-2.156.858 20.453 20.453 0 0 1-6.429 1.003Zm-7.014-8.603a15.387 15.387 0 0 0-.894 4.066 3.578 3.578 0 0 0 .217 1.994c.46.87 1.517 1.25 2.417 1.492 3.82 1.039 7.86.938 11.624-.29.495-.163.985-.344 1.462-.55a12.127 12.127 0 0 1-6.277-2.247 19.427 19.427 0 0 1-5.6-1.565c-1.729-.779-2.677-1.716-2.913-2.858l-.036-.042Zm9.244 4.537a11.593 11.593 0 0 0 6.18 1.855h.097a19.928 19.928 0 0 0 7.25-5.788 10.87 10.87 0 0 0 2-3.74c.118-.436.191-.883.217-1.335-1.323 3.408-3.54 6.042-6.26 7.377-.679.332-1.384.609-2.108.828-1.666.53-3.399.821-5.147.864-.754.023-1.508.003-2.26-.061h.03Zm16.07-9.95a6.796 6.796 0 0 1-.223 2.362 11.075 11.075 0 0 1-2.054 3.861 20.222 20.222 0 0 1-6.646 5.534 13.939 13.939 0 0 0 5.637-1.873 11.425 11.425 0 0 0 3.872-3.353 6.042 6.042 0 0 0-.271-7.77c-.093.419-.208.832-.345 1.239h.03Zm-14.663 9.666h.804a17.607 17.607 0 0 0 5.83-1.208c.741-.277 1.45-.633 2.115-1.063a7.85 7.85 0 0 0 3.389-6.616 10.192 10.192 0 0 0-1.118-4.132 14.326 14.326 0 0 0-.604-1.1c-.405-.193-.81-.369-1.208-.544a30.338 30.338 0 0 0-3.97-1.48 20.391 20.391 0 0 0-6.537-.683 7.66 7.66 0 0 0-1.347 1.269 6.41 6.41 0 0 0-.604.846 11.523 11.523 0 0 0-.665 2.417l-.09.284a8.018 8.018 0 0 1 2.64-1.922c2.006-.858 4.61-.634 6.96.604.647.311 1.23.741 1.716 1.269a7.246 7.246 0 0 1 1.293 2.852c.555 2 .936 4.078 0 5.733a6.035 6.035 0 0 1-2.87 2.314 9.616 9.616 0 0 1-4.834.997 5.326 5.326 0 0 1-.93.151l.03.012Zm-3.244-1.136c.77.538 1.69.819 2.628.804.172-.001.343-.011.514-.03a5.54 5.54 0 0 1-3.474-2.471 7.483 7.483 0 0 1-.792-2.634 21.107 21.107 0 0 1-.211-4.23l-.302.049a26.566 26.566 0 0 0-.121 3.353c-.024 1.081.113 2.16.404 3.202.11.369.271.72.478 1.045.278.308.568.641.876.912Zm-5.057-2.483a10.442 10.442 0 0 0 3.879 2.701c.471.188.953.347 1.444.477l-.103-.09-.387-.345a3.838 3.838 0 0 1-.918-.96 14.123 14.123 0 0 1-2.743-4.9 20.644 20.644 0 0 0-1.172 3.136v-.019Zm13.769-.477a4.665 4.665 0 0 1-2.097 2.695 8.615 8.615 0 0 1-1.582.876 9.914 9.914 0 0 0 3.782-.991 5.683 5.683 0 0 0 2.718-2.169c.907-1.547.532-3.547 0-5.474a6.728 6.728 0 0 0-1.208-2.719 5.456 5.456 0 0 0-1.613-1.208c-2.266-1.208-4.755-1.402-6.646-.604a8.23 8.23 0 0 0-2.864 2.199c-.054.423-.096.84-.127 1.263 3.287-.653 6.7.604 9.462 1.661a2.9 2.9 0 0 1 1.655 1.136c.168.332.237.705.2 1.075a2.734 2.734 0 0 1-1.68 2.278v-.018Zm-9.703-5.643a21.04 21.04 0 0 0 .206 4.229 7.25 7.25 0 0 0 .755 2.514 5.313 5.313 0 0 0 4.048 2.447h.054a7.915 7.915 0 0 0 2.332-1.13 4.533 4.533 0 0 0 1.903-2.278c-.178.045-.36.07-.544.073a2.805 2.805 0 0 1-2.737-2.302l.339-.049a2.451 2.451 0 0 0 2.338 2.012h.048a2.13 2.13 0 0 0 .647-.121v-.054c.205-1.589-1.1-3.021-2.387-3.794a11.478 11.478 0 0 0-6.138-1.595c-.296.024-.592.036-.864.066v-.018Zm-6.138 4.731c-.027.236-.015.475.036.707.205 1.033 1.094 1.885 2.719 2.616.974.44 1.985.796 3.02 1.063a10.88 10.88 0 0 1-3.788-2.61c-.066.248-.12.489-.175.737l-.338-.072c.072-.327.15-.647.242-.967a9.757 9.757 0 0 1-1.39-2.078c-.127.247-.23.417-.326.622v-.018Zm3.455-2.187a14.003 14.003 0 0 0 1.94 4.048 11.718 11.718 0 0 1-.369-3.142 27.57 27.57 0 0 1 .11-3.269l-.4.151c-.475.715-.903 1.46-1.28 2.23v-.018Zm17.854-6.646c.127.217.247.447.362.683a10.373 10.373 0 0 1 1.148 4.271 8.211 8.211 0 0 1-1.601 5.039 14.857 14.857 0 0 0 3.16-5.063c.103-.272.2-.538.278-.798a5.05 5.05 0 0 0-.526-1.812 5.81 5.81 0 0 0-.882-1.208 16.193 16.193 0 0 0-1.94-1.094v-.018Zm-20.796 7.854c.341.734.776 1.42 1.293 2.042.332-1.134.76-2.238 1.281-3.299a15.893 15.893 0 0 1-.2-.773c-.03-.139-.06-.278-.084-.417l-.526.345a8.611 8.611 0 0 0-1.727 2.042l-.037.06Zm9.063-3.945c1.331.24 2.607.723 3.764 1.426 1.335.827 2.688 2.302 2.561 3.987a2.377 2.377 0 0 0 1.239-1.812 1.576 1.576 0 0 0-.163-.882 2.59 2.59 0 0 0-1.474-.985 27.643 27.643 0 0 0-5.927-1.698v-.036Zm-5.31-6.229a5.689 5.689 0 0 0-1.022.362 6.043 6.043 0 0 0-2.78 3.221 8.458 8.458 0 0 0-.658 3.909c.052.709.206 1.407.46 2.072a6.942 6.942 0 0 1 1.727-1.704l.079-.06c.212-.182.429-.345.653-.502a10.468 10.468 0 0 1 .308-5.02 7.6 7.6 0 0 1 1.232-2.242v-.036Zm-1.155 7.534c.036.175.073.356.115.532l.09.392c.266-.507.55-1.003.852-1.48-.363.177-.716.375-1.057.592v-.036Zm1.71-7.613a7.253 7.253 0 0 0-1.462 2.526 10.057 10.057 0 0 0-.32 4.7 7.006 7.006 0 0 1 1.522-.713c.236-.35.483-.688.743-1.021a11.139 11.139 0 0 1 1.468-4.084 6.354 6.354 0 0 1 1.172-1.879c-.938.088-1.872.223-2.797.405l-.326.066Zm.374 6.205-.114.157h.096l.018-.157Zm.43-.574-.091.604.278-.072c0-.29.048-.604.078-.864l-.127.139-.139.193Zm18.644-1.323c.06.091.115.186.163.284.197.382.343.788.435 1.208.06-.259.109-.507.145-.755a9.162 9.162 0 0 0-.743-.755v.018Zm-18.125-.822c-.163.469-.296.947-.399 1.432l.2-.235c.036-.248.072-.49.114-.737.043-.164.073-.321.103-.478l-.018.018Zm17.31-.217c.271.181.531.374.785.604.284.228.554.472.81.731a5.099 5.099 0 0 0-.526-2.888 6.27 6.27 0 0 0-1.305-1.583 11.94 11.94 0 0 0-11.226-2.55l.532.061.338-.042a8.392 8.392 0 0 1 5.927 1.746c.495.392.946.836 1.347 1.323.442.29.858.574 1.209.834.767.507 1.48 1.092 2.127 1.746l-.019.018Zm-2.478-1.378c.296.139.605.284.882.435-.235-.181-.477-.35-.707-.507l-.41-.29c.127.103.175.217.254.344l-.019.018Zm-10.808-2.809c1.854-.01 3.702.233 5.492.719 1.37.406 2.71.907 4.011 1.498l.713.321a9.18 9.18 0 0 0-.495-.659 21.9 21.9 0 0 0-3.547-1.91 15.832 15.832 0 0 0-3.83-1.032 7.949 7.949 0 0 0-2.942 1.07l.598-.007Zm3.836-1.136c.843.198 1.67.46 2.471.786.855.356 1.683.774 2.477 1.25a8.004 8.004 0 0 0-4.93-2.054l-.018.018Zm-3.673-.072h-.338a8.157 8.157 0 0 0-2.943.531 5.944 5.944 0 0 0-1.812 1.154 27.182 27.182 0 0 1 3.087-.411c.45-.388.943-.725 1.468-1.002.2-.115.369-.206.556-.29l-.018.018Zm.822 0c-.414.161-.817.347-1.209.555-.363.198-.712.42-1.045.665a8.18 8.18 0 0 1 2.501-1.208l-.247-.012Z" opacity=".2"/></svg>