<svg xmlns="http://www.w3.org/2000/svg" width="159" height="140" fill="none"><path fill="#8A1114" d="M87.395 140c39.148 0 70.883-1.853 70.883-4.138 0-2.286-31.735-4.139-70.883-4.139-39.147 0-70.882 1.853-70.882 4.139 0 2.285 31.735 4.138 70.882 4.138Z" opacity=".4"/><path fill="#263238" d="M66.7 27.434c-2.848 2.347-5.63 6.13-4 10.236 1.63 4.106 12.064 4.519 14.258 2.83 2.851-2.194.332-11.962-1.89-12.02-.168-3.623-5.988-3.01-8.368-1.046Z"/><path fill="#FFB573" d="M62.71 66.972s1.145 20.816 2.407 32.087c.127 10.583 2.558 34.492 2.558 34.492h2.673c.45-11.863 3.75-22.94 1.557-33.403 5.118-20.546 1.612-33.162 1.612-33.162l-10.806-.014Z"/><path fill="#FFB573" d="M65.621 66.986s5.502 23.09 7.008 32.924c1.587 10.332 3.949 30.38 3.839 33.634h2.307s3.875-20.283.288-33.268c2.958-29.247-4.339-33.268-4.339-33.268l-9.103-.022ZM52.428 40.28c-.172-1.246-2.46-1.352-2.46-1.352l-1.098-.552a.87.87 0 0 0-1.18.263l-.366.607a1.097 1.097 0 0 0 .406 1.367l.333.241c.566.405 1.235.64 1.93.677l1.012.055a1.86 1.86 0 0 0 .658-.08 1.097 1.097 0 0 0 .754-1.226h.01Z"/><path fill="#FFB573" d="M64.48 47.574a5.577 5.577 0 0 1-.314.303l-.289.256c-.19.161-.387.31-.58.46a17.55 17.55 0 0 1-1.211.82c-.829.499-1.7.924-2.603 1.272a16.142 16.142 0 0 1-5.637 1.097h-.168a2.147 2.147 0 0 1-.764-.158 2.365 2.365 0 0 1-.732-.475 3.22 3.22 0 0 1-.661-.936 7.11 7.11 0 0 1-.508-1.546 18.094 18.094 0 0 1-.366-2.786 35.677 35.677 0 0 1 .11-5.381.82.82 0 0 1 1.627-.022v.022c.197 1.703.424 3.433.73 5.089.136.802.323 1.594.56 2.372.094.319.224.625.388.914.065.106.131.157.102.12a.45.45 0 0 0-.176-.116.698.698 0 0 0-.186-.055h-.099a16.074 16.074 0 0 0 2.333-.387c.76-.19 1.505-.435 2.23-.732a14.58 14.58 0 0 0 2.08-1.096 13.502 13.502 0 0 0 1.411-.998l.212-.176.16-.143.096-.084a1.642 1.642 0 0 1 2.252 2.388l.004-.022Z"/><path fill="#E0E0E0" d="M66.28 43.516C63.386 43.033 60.352 45 58.78 46.6c-.812 2.442 1.788 5.41 1.788 5.41s3.703-2.273 5.037-3.827c1.335-1.553 2.34-4.39.673-4.668Z"/><path fill="#263238" d="M75.236 66.708s4.08 2.896 4.847 12.521c.308 3.791.86 18.916 2.022 25.423-4.186 2.99-16.718 2.581-18.681.833.556-13.16-4.475-30.617-.826-38.645 6.04-.742 12.638-.132 12.638-.132Z"/><path fill="#000" d="M71.098 94.313c.055-5.53-.76-13.142-3.236-17.654.845 5.63 3.236 17.654 3.236 17.654Z" opacity=".2"/><path fill="#E0E0E0" d="M60.682 47.976c0 3.133-2.497 4.778.329 7.19.168 2.706.365 7.55 1.195 11.963.86 1.195 7.14 1.096 13.666-.318-.852-3.784-.538-9.948 1.696-18.378a3.505 3.505 0 0 0-2.793-4.318 32.452 32.452 0 0 0-1.689-.256c-2.04-.3-4.1-.454-6.164-.46-.665 0-1.356.044-2.014.088a4.504 4.504 0 0 0-4.226 4.489Z"/><path fill="#8A1114" d="m74.014 53.416-7.66 1.734a.541.541 0 0 0-.407.647l2.48 10.95a.541.541 0 0 0 .646.408l7.66-1.734a.541.541 0 0 0 .407-.648l-2.48-10.95a.541.541 0 0 0-.646-.407ZM67.68 47.438s-1.24 1.485-2.264 1.828l-.117.732a5.55 5.55 0 0 0 3.375-1.74l-.995-.82ZM64.313 46.543s-.052 1.93.482 2.873l-.398.63a5.56 5.56 0 0 1-1.382-3.54l1.297.037Z"/><path fill="#FFB573" d="M72.834 36.906c-.49 1.945-1.064 5.531.252 6.946 0 0-4.902 1.338-8.098 5.725-1.462-4.61 1.949-6.185 1.949-6.185 2.234-.366 2.263-1.997 1.956-3.561l3.94-2.925Z"/><path fill="#000" d="m71.23 38.102-2.333 1.736a6.4 6.4 0 0 1 .132 1.097c.848-.059 2.054-.896 2.193-1.77.064-.351.067-.711.007-1.063Z" opacity=".2"/><path fill="#FFB573" d="M75.108 33.44c-.94 3.152-1.269 4.508-3.246 5.747-2.976 1.861-6.58-.054-6.603-3.44 0-3.049 1.525-7.677 4.914-8.181 3.389-.505 5.89 2.72 4.935 5.874Z"/><path fill="#263238" d="M72.651 28.838c-.888 3.038-.128 6.215 1.686 6.58 2.519-.94 2.394-3.736 1.75-5.016-.643-1.28-2.924-3.315-3.436-1.564Z"/><path fill="#263238" d="M74.03 34.296c-1.4.464-1.671 1.404-1.671 1.404s.961-.68 1.883-.552a1.975 1.975 0 0 1-.212-.852ZM70.53 33.144c-.061.26-.248.435-.42.395-.172-.04-.263-.292-.2-.552.061-.26.248-.439.42-.395.171.044.248.293.2.552ZM67.288 32.373c-.062.26-.249.435-.42.391-.172-.044-.264-.289-.201-.552.062-.263.248-.435.42-.391.172.044.267.289.201.552Z"/><path fill="#263238" d="m67.168 31.854-.589-.34s.209.57.589.34Z"/><path fill="#ED893E" d="M67.903 32.797a6.904 6.904 0 0 1-1.324 1.426 1.193 1.193 0 0 0 .896.413l.428-1.839Z"/><path fill="#FFB573" d="M75.126 36.603a2.082 2.082 0 0 1-1.568.73c-.764-.021-.896-.898-.475-1.619.365-.65 1.228-1.422 1.893-1.053.666.37.67 1.35.15 1.942Z"/><path fill="#263238" d="M71.141 32.026a.168.168 0 0 1-.084-.096 1.309 1.309 0 0 0-.79-.84.161.161 0 0 1-.087-.25.152.152 0 0 1 .103-.06c.02-.002.042 0 .061.006a1.616 1.616 0 0 1 1.013 1.05.148.148 0 0 1-.044.168.149.149 0 0 1-.055.029.16.16 0 0 1-.117-.007ZM66.11 30.816a.164.164 0 0 1-.112-.04.16.16 0 0 1 0-.224 1.546 1.546 0 0 1 1.33-.526.165.165 0 0 1 .135.183.157.157 0 0 1-.179.131 1.216 1.216 0 0 0-1.049.424.16.16 0 0 1-.124.052ZM70.403 32.629l-.589-.344s.209.574.589.344Z"/><path fill="#FFB573" d="m70.213 58.585-2.925-.567.33 3.36s2.193-.095 3.443-1.097l.117-.438c-.135-.728-.3-.995-.965-1.258Z"/><path fill="#FFB573" d="m65.53 59.452.34 1.422a.841.841 0 0 0 .943.632l.819-.128-.33-3.36-1.246.454a.837.837 0 0 0-.526.98ZM76.753 46.572a43.689 43.689 0 0 1 2.322 5.264c.329.903.64 1.828.888 2.775a17.2 17.2 0 0 1 .548 2.998c.022.267.033.541.037.819v.256a2.071 2.071 0 0 1-.307.888c-.17.263-.39.488-.65.662a3.43 3.43 0 0 1-1.04.464c-.279.078-.564.137-.85.18-.997.125-2.003.163-3.006.113a38.89 38.89 0 0 1-5.663-.68.815.815 0 0 1 .14-1.62c1.827-.033 3.677-.08 5.457-.216.853-.059 1.7-.18 2.534-.365.17-.04.337-.09.5-.154a.571.571 0 0 0 .22-.117.464.464 0 0 0-.168.172.927.927 0 0 0-.14.399.47.47 0 0 0 0 .073c0-.187-.032-.366-.061-.57a24.352 24.352 0 0 0-1.488-4.94 74.01 74.01 0 0 0-2.194-4.91v-.029a1.645 1.645 0 0 1 2.925-1.484l-.004.022Z"/><path fill="#E0E0E0" d="M74.965 44.229c2.095.387 3.027 2.27 4.548 6.028-.464 2.53-4.182 3.86-4.182 3.86s-2.135-3.783-2.56-5.79c-.423-2.007.081-4.49 2.194-4.098Z"/><path fill="#263238" d="M70.538 133.58a.228.228 0 0 0-.241-.149l-2.479-.037a1.357 1.357 0 0 0-.731.157 9.291 9.291 0 0 1-3.736 1.335c-.527.08-.289.968.954.983 2.05.022 2.424-.132 4.175-.113 1.495.018.782.084 1.97.113.285 0 .52-.179.483-.366l-.395-1.923ZM79.089 133.58a.23.23 0 0 0-.241-.149l-2.022-.037a1.338 1.338 0 0 0-.731.157c-.731.508-.629 1.097-2.296 1.335-.527.08-.267.968.976.983 2.051.022 1.927-.113 2.76-.113.834 0 .322.084 1.514.113.285 0 .515-.179.471-.366l-.431-1.923Z"/><path fill="#FAFAFA" d="M66.33 48.002c1.039.043 2.944.895 3.554 1.805.863-.895 4.233-2.975 4.292-5.794a2.924 2.924 0 0 0-1.495-.768s-4.497 2.175-6.35 4.757ZM64.648 47.855s-.281-2.277 2.476-4.49c-.278-.226-1.368.03-1.368.03s-3.22 1.386-3.126 4.972a2.767 2.767 0 0 1 2.018-.512Z"/><path fill="#8A1114" d="M64.24 48.82c-.4.187-.557 1.485 0 1.788.555.303.5-.936.822-1.36.321-.424-.125-.753-.823-.428Z"/><path fill="#8A1114" d="M64.73 49.325c-.286.365.083 1.608.697 1.605.615-.004.085-1.097.205-1.638.12-.541-.416-.61-.903.033Z"/><path fill="#8A1114" d="M64.813 50.25c-.683-1.057-.73 4.511.925 6.705-.11-2.161 1.05-5.225-.925-6.705Z"/><path fill="#8A1114" d="M64.75 50.202c-.302-1.075-1.827 3.634-.983 5.934.48-1.861 2.267-4.157.984-5.934Z"/><path fill="#263238" d="M69.847 35.641c.16-.07.312-.152.457-.248a.087.087 0 0 0 .02-.096.086.086 0 0 0-.02-.029.099.099 0 0 0-.132-.022 2.625 2.625 0 0 1-2.244.326.093.093 0 0 0-.07-.002.092.092 0 0 0-.05.05.092.092 0 0 0 .054.116c.65.214 1.358.18 1.985-.095Z"/><path fill="#8A1114" d="M59.238 38.218H40.56v.607h18.678v-.607ZM58.792 38.825H41.006l.783.424h16.22l.783-.424Z"/><path fill="#000" d="M58.792 38.825H41.006l.783.424h16.22l.783-.424Z" opacity=".2"/><path fill="#263238" d="M46.545 21.961a.417.417 0 0 1-.413-.413v-1.385a.417.417 0 0 1 .413-.414.417.417 0 0 1 .413.414v1.385a.416.416 0 0 1-.413.413Z"/><path fill="#263238" d="M47.21 20.078v-.182a.322.322 0 0 0-.321-.322H46.2a.322.322 0 0 0-.321.322v.182c0 .178.144.322.321.322h.688a.322.322 0 0 0 .321-.322Z"/><path fill="#8A1114" d="M47.207 24.97v-3.952a.165.165 0 0 0-.161-.165h-1.002a.165.165 0 0 0-.16.165v3.952a2.102 2.102 0 0 1-.706 1.572 2.128 2.128 0 0 0-.706 1.576v10.137h4.142V28.118a2.118 2.118 0 0 0-.705-1.576 2.11 2.11 0 0 1-.702-1.572Z"/><path fill="#E0E0E0" d="M48.614 29.317H45.88v6.554h2.734v-6.554Z"/><path fill="#8A1114" d="M52.497 38.218h-.494c.165.012.33.012.494 0ZM55.476 38.218h-.497c.166.011.332.011.497 0Z"/><path fill="#8A1114" d="M51.835 30.486v1.664c0 1.323.753 2.424 1.707 2.559v2.925c0 .45-.439.577-.779.606h1.95c-.34-.029-.78-.157-.78-.606v-2.925c.955-.132 1.708-1.232 1.708-2.56v-1.663h-3.806Z" opacity=".2"/><path fill="#263238" d="M74.487 28.922c-1.463.621-6.362.811-8.28.395 1.984-2.804 6.444-3.627 8.28-.395ZM79.096 38.939a.095.095 0 0 1-.073-.037c-.047-.066-1.126-1.652-1.148-5.9 0-1.773-.544-3.2-1.462-3.92a1.98 1.98 0 0 0-1.737-.394.09.09 0 0 1-.069-.012.09.09 0 0 1-.04-.058.09.09 0 0 1 .012-.069.092.092 0 0 1 .057-.04 2.193 2.193 0 0 1 1.886.427c.97.757 1.529 2.238 1.54 4.062.022 4.182 1.096 5.784 1.096 5.798a.091.091 0 0 1-.022.128.102.102 0 0 1-.04.015ZM105.404 17.417c1.02 1.396 1.016 3.572.669 4.752-1.828-.83-1.543-3.213-1.543-3.213l.874-1.539Z"/><path fill="#E0E0E0" d="m110.869 34.702 1.053 1.159 1.097 1.177c.731.778 1.462 1.539 2.215 2.27.366.365.731.731 1.123 1.053.391.322.731.665 1.115.961.383.296.731.56 1.071.786.256.172.525.324.804.454l-.559-.088a.734.734 0 0 0-.476.106s.088 0 .213-.073c.339-.208.654-.453.939-.731a22.906 22.906 0 0 0 2.095-2.278 64.266 64.266 0 0 0 2.054-2.632 275.66 275.66 0 0 0 2.018-2.738l.033-.04a1.65 1.65 0 0 1 2.896 1.462 36.209 36.209 0 0 1-1.283 3.403 41.168 41.168 0 0 1-1.609 3.29 22.558 22.558 0 0 1-2.15 3.243 10.989 10.989 0 0 1-1.623 1.638 6.21 6.21 0 0 1-1.29.804 4.792 4.792 0 0 1-2.168.446 2.176 2.176 0 0 1-.41-.055l-.153-.032a10.164 10.164 0 0 1-2.307-.86 16.24 16.24 0 0 1-1.773-1.049 28.139 28.139 0 0 1-2.976-2.306 43.386 43.386 0 0 1-2.607-2.49c-.409-.431-.818-.863-1.21-1.309a47.229 47.229 0 0 1-1.18-1.39 3.287 3.287 0 0 1 .57-4.365 3.29 3.29 0 0 1 4.401.11l.077.074Z"/><path fill="#FF8B7B" d="m127.269 36.102 3.258.157-1.057-4.387s-3.031.223-3.517 1.78a.794.794 0 0 0 .029.527l.6 1.437a.786.786 0 0 0 .687.486Z"/><path fill="#FF8B7B" d="m133.433 33.656-.629-1.462a1.308 1.308 0 0 0-1.51-.753l-1.828.45 1.057 4.386 2.193-.884a1.31 1.31 0 0 0 .727-.717 1.3 1.3 0 0 0-.01-1.02Z"/><path fill="#263238" d="M103.166 96.854c-3.458-15.212-5.597-33.553-5.597-33.553l14.181-.227s-.197 24.717-.168 35.07c.037 10.767.782 34.46.782 34.46h-4.302s-5.554-22.443-4.896-35.75Z"/><path fill="#000" d="m102.063 75.866-2.245 3.327c.669 4.153 1.462 8.726 2.387 13.208.388-6.887.322-14.89-.142-16.535Z"/><path fill="#263238" d="M118.104 134.714s-5.926-1.397-6.372-2.336h-3.29l.022 3.484h2.032l.311-.322.516.322c1.645 0 6.017-.066 7.052-.435a.774.774 0 0 0-.271-.713ZM89.976 96.426c1.642-15.3 1.59-25.52 3.59-33.06l12.912-.193s-5.377 24.267-7.874 34.365c-2.497 10.097-6.77 35.059-6.77 35.059h-3.986s-1.254-24.34 2.128-36.17Z"/><path fill="#E0E0E0" d="M92.543 66.346c-.285 1.828-1.302 12.642-2.355 16.58 8.61 3.82 21.771 2.317 22.177-.161-.121-4.592-.366-16.419-.366-16.419H92.543Z"/><path fill="#000" d="M93.022 68.353a13.082 13.082 0 0 0 2.16 2.65s-1.857-.332-2.16-2.65ZM110.328 70.901a10.7 10.7 0 0 0 1.192-2.365s.084 1.868-1.192 2.365ZM93.102 69.732c.198.732.492 1.435.874 2.09a1.928 1.928 0 0 1-.874-2.09Z" opacity=".1"/><path fill="#263238" d="M95.548 134.714s-3.696-1.397-4.12-2.336h-3.29l-.066 3.484h2.694l.318-.322.508.322c1.645 0 3.163-.066 4.208-.435a.75.75 0 0 0-.252-.713ZM93.09 32.844c4.563-.566 11.078-.511 15.447.242a5.29 5.29 0 0 1 4.292 4.449c.917 6.599.128 18.13-.457 29.736-9.981 3.415-20.51-.047-20.51-.047-.365-2.34.454-10.014 1.002-14.108-.822-4.23-2.559-9.074-3.722-14.693a4.602 4.602 0 0 1 3.949-5.579Z"/><path fill="#fff" d="M93.09 32.844c4.563-.566 11.078-.511 15.447.242a5.29 5.29 0 0 1 4.292 4.449c.917 6.599.128 18.13-.457 29.736-9.981 3.415-20.51-.047-20.51-.047-.365-2.34.454-10.014 1.002-14.108-.822-4.23-2.559-9.074-3.722-14.693a4.602 4.602 0 0 1 3.949-5.579Z" opacity=".1"/><path fill="#FF8B7B" d="m97.606 24.133 5.191 4.259c-.672 1.787-.884 3.655 2.048 4.361.731.969-.366 2.669-1.667 3.33-3.079-.701-4.852-1.528-6.047-3.17.376-1.286.976-6.137.475-8.78Z"/><path fill="#000" d="m99.77 25.91 3.027 2.478a6.692 6.692 0 0 0-.365 1.28c-1.174.084-2.804-1.097-2.877-2.172a4.362 4.362 0 0 1 .215-1.587Z" opacity=".2"/><path fill="#FF8B7B" d="M96.86 21.23c.476 3.257.585 5.188 2.38 6.716 2.702 2.3 6.621.427 7.133-2.925.457-3.009-.395-7.83-3.711-8.84a4.537 4.537 0 0 0-5.802 5.049Z"/><path fill="#263238" d="M96.831 22.733a2.56 2.56 0 0 0 2.694.69c-.782-.793-.022-3.695-.804-4.876 1.514.3 7.407 1.155 7.97-.889.61-2.193-1.828-3.944-3.195-4.109.402.914.365 1.576-1.134 1.28-1.499-.296-7.677-1.722-6.993 1.173-1.99 0-2.124 2.896-.67 4.281a14.995 14.995 0 0 1 2.132 2.45Z"/><path fill="#263238" d="M95.734 15.863c-1.191-.296-.819-1.393-.552-1.506-1.115.27-1.52 1.367-.175 1.872 1.345.504.727-.366.727-.366Z"/><path fill="#FF8B7B" d="M95.942 23.23a2.83 2.83 0 0 0 1.397 1.67c.896.457 1.546-.296 1.462-1.239-.07-.852-.614-2.113-1.594-2.193a1.29 1.29 0 0 0-1.265 1.762Z"/><path fill="#263238" d="M101.434 21.347c.022.267.183.472.365.457.183-.015.3-.249.278-.512-.022-.263-.183-.472-.365-.457-.183.015-.3.245-.278.512ZM104.621 21.27c.022.267.183.472.366.454.183-.019.296-.245.274-.512-.022-.267-.183-.468-.365-.454-.183.015-.297.245-.275.512Z"/><path fill="#FF5652" d="M103.974 21.628a9.45 9.45 0 0 0 1.462 2.165c-.435.482-1.253.365-1.253.365l-.209-2.53Z"/><path fill="#263238" d="M100.94 20.499a.144.144 0 0 1-.077 0 .154.154 0 0 1-.087-.205 1.575 1.575 0 0 1 1.064-.972.159.159 0 0 1 .186.124.157.157 0 0 1-.024.119.156.156 0 0 1-.1.067 1.253 1.253 0 0 0-.837.78.158.158 0 0 1-.125.088ZM106.471 20.075a.152.152 0 0 1-.131-.073 1.24 1.24 0 0 0-.947-.618.156.156 0 0 1-.143-.1.157.157 0 0 1-.011-.061.16.16 0 0 1 .165-.154 1.559 1.559 0 0 1 1.206.768.163.163 0 0 1 .018.118.161.161 0 0 1-.069.098.133.133 0 0 1-.088.022Z"/><path fill="#E0E0E0" d="M97.13 32.914s5.327 8.094 7.353 13.804c1.996-6.7 2.226-12.064.365-13.965-.599.757-3.012 1.78-7.717.16ZM95.314 38.895l-.516 1.462-.512 1.521a75.343 75.343 0 0 0-.94 3.027c-.145.5-.273.998-.39 1.488-.117.49-.23.976-.311 1.44-.08.465-.143.914-.183 1.316a6.83 6.83 0 0 0 0 .925l-.19-.533c-.154-.29-.31-.366-.318-.366-.007 0 .051.073.165.154.34.2.702.362 1.078.482.972.327 1.965.588 2.972.782 1.071.212 2.175.366 3.29.549 1.115.183 2.263.31 3.367.468h.052a1.65 1.65 0 0 1 .084 3.25 36.136 36.136 0 0 1-3.601.497 37.88 37.88 0 0 1-3.656.157 22.728 22.728 0 0 1-3.875-.34 11.19 11.19 0 0 1-2.194-.647 6.044 6.044 0 0 1-1.323-.753 4.778 4.778 0 0 1-1.426-1.689 2.195 2.195 0 0 1-.15-.388l-.04-.15a10.235 10.235 0 0 1-.347-2.438c-.018-.687.008-1.374.077-2.058a27.71 27.71 0 0 1 .603-3.71c.26-1.193.588-2.344.943-3.481a39.045 39.045 0 0 1 1.232-3.389 3.29 3.29 0 0 1 6.145 2.343l-.036.08Z"/><path fill="#FF8B7B" d="m103.346 52.081 3.232.402-1.785 4.135s-2.95-.73-3.162-2.354a.77.77 0 0 1 .121-.512l.833-1.312a.793.793 0 0 1 .761-.359Z"/><path fill="#FF8B7B" d="m109.001 55.543-.87 1.346a1.304 1.304 0 0 1-1.616.482l-1.722-.753 1.784-4.135 2.015 1.247a1.295 1.295 0 0 1 .585.82 1.295 1.295 0 0 1-.176.993Z"/><path fill="#FAFAFA" d="M97.39 31.656a3.038 3.038 0 0 0-1.766.95 10.602 10.602 0 0 0 5.85 3.913c-.168-.56.336-2.194.892-2.779-2.044-.303-4.976-2.084-4.976-2.084Z"/><path fill="#FAFAFA" d="M103.006 31.857a5.029 5.029 0 0 1 1.934.794s2.047 2.285-.366 3.575c.165-.56-1.097-2.05-2.226-2.486 2.04-.303.658-1.883.658-1.883Z"/><path fill="#8A1114" d="M102.574 35.042c-1.616-.867-3.615-1.806-3.06-.29.556 1.518-.179 2.044.545 2.56.724.515 2.193-.9 2.68-1.097.486-.197-.165-1.173-.165-1.173ZM103.719 35.03c1.232-.83 2.774-1.729 2.5-.248-.274 1.48.406 1.996-.131 2.497-.538.5-1.92-.9-2.358-1.097-.439-.197-.011-1.151-.011-1.151Z"/><path fill="#8A1114" d="M102.355 34.925c.366-.22 1.258-.497 1.7.098.442.596.3 1.594-.311 1.715a1.234 1.234 0 0 1-1.192-.42 1.096 1.096 0 0 0-.197-1.393Z"/><path fill="#000" d="m92.056 132.714-4.434.124-.234-2.511 5.15.307-.482 2.08ZM112.522 132.707l-4.789.131-.53-2.175 5.348-.519-.029 2.563Z"/><path fill="#fff" d="M102.084 51.23a30.045 30.045 0 0 0-6.88-1.189c-.497.03-.687 11.264-.647 15.86 0 .62 7.151.496 8.979.215.102-1.283.124-10.65.599-13.578a1.038 1.038 0 0 0-.621-1.118 2.905 2.905 0 0 0-1.43-.19Z"/><path fill="#8A1114" d="M139.516 33.247h-20.297v.577h20.297v-.577ZM139.092 33.824h-19.449l.746.406h17.961l.742-.406Z"/><path fill="#000" d="M139.092 33.824h-19.449l.746.406h17.961l.742-.406Z" opacity=".2"/><path fill="#8A1114" d="M130.205 25.087a.84.84 0 0 1-.999.825.837.837 0 0 1 .161-1.659.842.842 0 0 1 .592.243.83.83 0 0 1 .246.59ZM138.142 30.567a9.218 9.218 0 0 0-3.079-4.416l.227-.29a9.594 9.594 0 0 1 3.203 4.596l-.351.11ZM133.795 25.31a9.11 9.11 0 0 0-1.276-.581l.124-.344a9.61 9.61 0 0 1 1.327.618l-.175.307Z"/><path fill="#8A1114" d="M129.368 25.087a8.303 8.303 0 0 0-8.303 8.302h16.605a8.302 8.302 0 0 0-8.302-8.302Z"/><path fill="#fff" d="M122.21 32.647h2.146a.322.322 0 0 0 .31-.263c.432-2.274 1.788-4.256 3.945-5.977a.286.286 0 0 0 .085-.338.288.288 0 0 0-.301-.174 7.577 7.577 0 0 0-6.503 6.394.32.32 0 0 0 .077.251.324.324 0 0 0 .241.107Z" opacity=".3"/><path fill="#263238" d="M102.954 25.109c.171.007.343-.001.512-.026a.087.087 0 0 0 .056-.037.09.09 0 0 0 .014-.065.104.104 0 0 0-.11-.077 2.558 2.558 0 0 1-2.128-.665.086.086 0 0 0-.064-.028.09.09 0 0 0-.064.028.094.094 0 0 0-.024.064c0 .023.008.046.024.064a2.718 2.718 0 0 0 1.784.742Z"/></svg>