<svg xmlns="http://www.w3.org/2000/svg" width="24" height="24" fill="none"><path stroke="#666" stroke-linecap="round" stroke-linejoin="round" stroke-width="1.5" d="M12 20.003a8.003 8.003 0 0 0 7.03-4.177M20.003 12A8.003 8.003 0 0 0 12 3.997M12 3.997a8.003 8.003 0 0 0-7.03 4.176M3.997 12A8.003 8.003 0 0 0 12 20.003"/><path stroke="#666" stroke-linecap="round" stroke-linejoin="round" stroke-width="1.5" d="M4.97 8.173A8.003 8.003 0 0 1 20.004 12M3.997 12a8.003 8.003 0 0 0 15.033 3.827"/><path stroke="#666" stroke-linecap="round" stroke-linejoin="round" stroke-width="1.5" d="M8.045 8.173H4.51V4.636M15.955 15.826h3.536v3.538"/></svg>